<?xml version="1.0" encoding="UTF-8"?>
<svg width="800" height="450" viewBox="0 0 800 450" xmlns="http://www.w3.org/2000/svg">
  <!-- Definitions for gradients and filters -->
  <defs>
    <linearGradient id="skyGradient" x1="0%" y1="0%" x2="0%" y2="100%">
      <stop offset="0%" style="stop-color:#1e88e5;stop-opacity:1" />
      <stop offset="100%" style="stop-color:#64b5f6;stop-opacity:1" />
    </linearGradient>
    <linearGradient id="groundGradient" x1="0%" y1="0%" x2="0%" y2="100%">
      <stop offset="0%" style="stop-color:#d7ccc8;stop-opacity:1" />
      <stop offset="100%" style="stop-color:#a1887f;stop-opacity:1" />
    </linearGradient>
    <linearGradient id="solarPanelGradient" x1="0%" y1="0%" x2="100%" y2="100%">
      <stop offset="0%" style="stop-color:#1a237e;stop-opacity:1" />
      <stop offset="50%" style="stop-color:#3949ab;stop-opacity:1" />
      <stop offset="100%" style="stop-color:#1a237e;stop-opacity:1" />
    </linearGradient>
    <linearGradient id="buildingGradient" x1="0%" y1="0%" x2="100%" y2="0%">
      <stop offset="0%" style="stop-color:#e0e0e0;stop-opacity:1" />
      <stop offset="50%" style="stop-color:#f5f5f5;stop-opacity:1" />
      <stop offset="100%" style="stop-color:#e0e0e0;stop-opacity:1" />
    </linearGradient>
    <filter id="shadow" x="-20%" y="-20%" width="140%" height="140%">
      <feGaussianBlur in="SourceAlpha" stdDeviation="3" />
      <feOffset dx="2" dy="4" result="offsetblur" />
      <feComponentTransfer>
        <feFuncA type="linear" slope="0.3" />
      </feComponentTransfer>
      <feMerge>
        <feMergeNode />
        <feMergeNode in="SourceGraphic" />
      </feMerge>
    </filter>
    <radialGradient id="sunGlow" cx="50%" cy="50%" r="50%" fx="50%" fy="50%">
      <stop offset="0%" style="stop-color:#ffff88;stop-opacity:1" />
      <stop offset="80%" style="stop-color:#ffcc00;stop-opacity:1" />
      <stop offset="100%" style="stop-color:#ff9900;stop-opacity:1" />
    </radialGradient>
    <filter id="glow">
      <feGaussianBlur in="SourceGraphic" stdDeviation="8" />
    </filter>
  </defs>

  <!-- Background layers -->
  <rect width="800" height="220" fill="url(#skyGradient)" />
  <rect y="220" width="800" height="230" fill="url(#groundGradient)" />

  <!-- Sun with glow effect -->
  <circle cx="700" cy="80" r="40" fill="#ffff88" filter="url(#glow)" opacity="0.7" />
  <circle cx="700" cy="80" r="30" fill="url(#sunGlow)" />
  
  <!-- Mountains in background -->
  <path d="M0,220 L100,160 L200,200 L300,150 L400,180 L500,130 L600,190 L700,140 L800,170 L800,220 Z" fill="#9e9e9e" opacity="0.6" />
  
  <!-- Main solar panel field -->
  <g transform="translate(100, 300)">
    <!-- Row 1 -->
    <g>
      <rect width="70" height="40" rx="2" ry="2" fill="url(#solarPanelGradient)" stroke="#121858" stroke-width="1" filter="url(#shadow)" />
      <line x1="0" y1="13.3" x2="70" y2="13.3" stroke="#283593" stroke-width="1" />
      <line x1="0" y1="26.7" x2="70" y2="26.7" stroke="#283593" stroke-width="1" />
      <line x1="17.5" y1="0" x2="17.5" y2="40" stroke="#283593" stroke-width="1" />
      <line x1="35" y1="0" x2="35" y2="40" stroke="#283593" stroke-width="1" />
      <line x1="52.5" y1="0" x2="52.5" y2="40" stroke="#283593" stroke-width="1" />
    </g>
    
    <g transform="translate(80, 0)">
      <rect width="70" height="40" rx="2" ry="2" fill="url(#solarPanelGradient)" stroke="#121858" stroke-width="1" filter="url(#shadow)" />
      <line x1="0" y1="13.3" x2="70" y2="13.3" stroke="#283593" stroke-width="1" />
      <line x1="0" y1="26.7" x2="70" y2="26.7" stroke="#283593" stroke-width="1" />
      <line x1="17.5" y1="0" x2="17.5" y2="40" stroke="#283593" stroke-width="1" />
      <line x1="35" y1="0" x2="35" y2="40" stroke="#283593" stroke-width="1" />
      <line x1="52.5" y1="0" x2="52.5" y2="40" stroke="#283593" stroke-width="1" />
    </g>
    
    <g transform="translate(160, 0)">
      <rect width="70" height="40" rx="2" ry="2" fill="url(#solarPanelGradient)" stroke="#121858" stroke-width="1" filter="url(#shadow)" />
      <line x1="0" y1="13.3" x2="70" y2="13.3" stroke="#283593" stroke-width="1" />
      <line x1="0" y1="26.7" x2="70" y2="26.7" stroke="#283593" stroke-width="1" />
      <line x1="17.5" y1="0" x2="17.5" y2="40" stroke="#283593" stroke-width="1" />
      <line x1="35" y1="0" x2="35" y2="40" stroke="#283593" stroke-width="1" />
      <line x1="52.5" y1="0" x2="52.5" y2="40" stroke="#283593" stroke-width="1" />
    </g>
    
    <g transform="translate(240, 0)">
      <rect width="70" height="40" rx="2" ry="2" fill="url(#solarPanelGradient)" stroke="#121858" stroke-width="1" filter="url(#shadow)" />
      <line x1="0" y1="13.3" x2="70" y2="13.3" stroke="#283593" stroke-width="1" />
      <line x1="0" y1="26.7" x2="70" y2="26.7" stroke="#283593" stroke-width="1" />
      <line x1="17.5" y1="0" x2="17.5" y2="40" stroke="#283593" stroke-width="1" />
      <line x1="35" y1="0" x2="35" y2="40" stroke="#283593" stroke-width="1" />
      <line x1="52.5" y1="0" x2="52.5" y2="40" stroke="#283593" stroke-width="1" />
    </g>
    
    <g transform="translate(320, 0)">
      <rect width="70" height="40" rx="2" ry="2" fill="url(#solarPanelGradient)" stroke="#121858" stroke-width="1" filter="url(#shadow)" />
      <line x1="0" y1="13.3" x2="70" y2="13.3" stroke="#283593" stroke-width="1" />
      <line x1="0" y1="26.7" x2="70" y2="26.7" stroke="#283593" stroke-width="1" />
      <line x1="17.5" y1="0" x2="17.5" y2="40" stroke="#283593" stroke-width="1" />
      <line x1="35" y1="0" x2="35" y2="40" stroke="#283593" stroke-width="1" />
      <line x1="52.5" y1="0" x2="52.5" y2="40" stroke="#283593" stroke-width="1" />
    </g>
    
    <g transform="translate(400, 0)">
      <rect width="70" height="40" rx="2" ry="2" fill="url(#solarPanelGradient)" stroke="#121858" stroke-width="1" filter="url(#shadow)" />
      <line x1="0" y1="13.3" x2="70" y2="13.3" stroke="#283593" stroke-width="1" />
      <line x1="0" y1="26.7" x2="70" y2="26.7" stroke="#283593" stroke-width="1" />
      <line x1="17.5" y1="0" x2="17.5" y2="40" stroke="#283593" stroke-width="1" />
      <line x1="35" y1="0" x2="35" y2="40" stroke="#283593" stroke-width="1" />
      <line x1="52.5" y1="0" x2="52.5" y2="40" stroke="#283593" stroke-width="1" />
    </g>
    
    <g transform="translate(480, 0)">
      <rect width="70" height="40" rx="2" ry="2" fill="url(#solarPanelGradient)" stroke="#121858" stroke-width="1" filter="url(#shadow)" />
      <line x1="0" y1="13.3" x2="70" y2="13.3" stroke="#283593" stroke-width="1" />
      <line x1="0" y1="26.7" x2="70" y2="26.7" stroke="#283593" stroke-width="1" />
      <line x1="17.5" y1="0" x2="17.5" y2="40" stroke="#283593" stroke-width="1" />
      <line x1="35" y1="0" x2="35" y2="40" stroke="#283593" stroke-width="1" />
      <line x1="52.5" y1="0" x2="52.5" y2="40" stroke="#283593" stroke-width="1" />
    </g>
    
    <!-- Row 2 -->
    <g transform="translate(0, 50)">
      <rect width="70" height="40" rx="2" ry="2" fill="url(#solarPanelGradient)" stroke="#121858" stroke-width="1" filter="url(#shadow)" />
      <line x1="0" y1="13.3" x2="70" y2="13.3" stroke="#283593" stroke-width="1" />
      <line x1="0" y1="26.7" x2="70" y2="26.7" stroke="#283593" stroke-width="1" />
      <line x1="17.5" y1="0" x2="17.5" y2="40" stroke="#283593" stroke-width="1" />
      <line x1="35" y1="0" x2="35" y2="40" stroke="#283593" stroke-width="1" />
      <line x1="52.5" y1="0" x2="52.5" y2="40" stroke="#283593" stroke-width="1" />
    </g>
    
    <g transform="translate(80, 50)">
      <rect width="70" height="40" rx="2" ry="2" fill="url(#solarPanelGradient)" stroke="#121858" stroke-width="1" filter="url(#shadow)" />
      <line x1="0" y1="13.3" x2="70" y2="13.3" stroke="#283593" stroke-width="1" />
      <line x1="0" y1="26.7" x2="70" y2="26.7" stroke="#283593" stroke-width="1" />
      <line x1="17.5" y1="0" x2="17.5" y2="40" stroke="#283593" stroke-width="1" />
      <line x1="35" y1="0" x2="35" y2="40" stroke="#283593" stroke-width="1" />
      <line x1="52.5" y1="0" x2="52.5" y2="40" stroke="#283593" stroke-width="1" />
    </g>
    
    <g transform="translate(160, 50)">
      <rect width="70" height="40" rx="2" ry="2" fill="url(#solarPanelGradient)" stroke="#121858" stroke-width="1" filter="url(#shadow)" />
      <line x1="0" y1="13.3" x2="70" y2="13.3" stroke="#283593" stroke-width="1" />
      <line x1="0" y1="26.7" x2="70" y2="26.7" stroke="#283593" stroke-width="1" />
      <line x1="17.5" y1="0" x2="17.5" y2="40" stroke="#283593" stroke-width="1" />
      <line x1="35" y1="0" x2="35" y2="40" stroke="#283593" stroke-width="1" />
      <line x1="52.5" y1="0" x2="52.5" y2="40" stroke="#283593" stroke-width="1" />
    </g>
    
    <g transform="translate(240, 50)">
      <rect width="70" height="40" rx="2" ry="2" fill="url(#solarPanelGradient)" stroke="#121858" stroke-width="1" filter="url(#shadow)" />
      <line x1="0" y1="13.3" x2="70" y2="13.3" stroke="#283593" stroke-width="1" />
      <line x1="0" y1="26.7" x2="70" y2="26.7" stroke="#283593" stroke-width="1" />
      <line x1="17.5" y1="0" x2="17.5" y2="40" stroke="#283593" stroke-width="1" />
      <line x1="35" y1="0" x2="35" y2="40" stroke="#283593" stroke-width="1" />
      <line x1="52.5" y1="0" x2="52.5" y2="40" stroke="#283593" stroke-width="1" />
    </g>
    
    <g transform="translate(320, 50)">
      <rect width="70" height="40" rx="2" ry="2" fill="url(#solarPanelGradient)" stroke="#121858" stroke-width="1" filter="url(#shadow)" />
      <line x1="0" y1="13.3" x2="70" y2="13.3" stroke="#283593" stroke-width="1" />
      <line x1="0" y1="26.7" x2="70" y2="26.7" stroke="#283593" stroke-width="1" />
      <line x1="17.5" y1="0" x2="17.5" y2="40" stroke="#283593" stroke-width="1" />
      <line x1="35" y1="0" x2="35" y2="40" stroke="#283593" stroke-width="1" />
      <line x1="52.5" y1="0" x2="52.5" y2="40" stroke="#283593" stroke-width="1" />
    </g>
    
    <g transform="translate(400, 50)">
      <rect width="70" height="40" rx="2" ry="2" fill="url(#solarPanelGradient)" stroke="#121858" stroke-width="1" filter="url(#shadow)" />
      <line x1="0" y1="13.3" x2="70" y2="13.3" stroke="#283593" stroke-width="1" />
      <line x1="0" y1="26.7" x2="70" y2="26.7" stroke="#283593" stroke-width="1" />
      <line x1="17.5" y1="0" x2="17.5" y2="40" stroke="#283593" stroke-width="1" />
      <line x1="35" y1="0" x2="35" y2="40" stroke="#283593" stroke-width="1" />
      <line x1="52.5" y1="0" x2="52.5" y2="40" stroke="#283593" stroke-width="1" />
    </g>
    
    <g transform="translate(480, 50)">
      <rect width="70" height="40" rx="2" ry="2" fill="url(#solarPanelGradient)" stroke="#121858" stroke-width="1" filter="url(#shadow)" />
      <line x1="0" y1="13.3" x2="70" y2="13.3" stroke="#283593" stroke-width="1" />
      <line x1="0" y1="26.7" x2="70" y2="26.7" stroke="#283593" stroke-width="1" />
      <line x1="17.5" y1="0" x2="17.5" y2="40" stroke="#283593" stroke-width="1" />
      <line x1="35" y1="0" x2="35" y2="40" stroke="#283593" stroke-width="1" />
      <line x1="52.5" y1="0" x2="52.5" y2="40" stroke="#283593" stroke-width="1" />
    </g>
    
    <!-- Row 3 -->
    <g transform="translate(0, 100)">
      <rect width="70" height="40" rx="2" ry="2" fill="url(#solarPanelGradient)" stroke="#121858" stroke-width="1" filter="url(#shadow)" />
      <line x1="0" y1="13.3" x2="70" y2="13.3" stroke="#283593" stroke-width="1" />
      <line x1="0" y1="26.7" x2="70" y2="26.7" stroke="#283593" stroke-width="1" />
      <line x1="17.5" y1="0" x2="17.5" y2="40" stroke="#283593" stroke-width="1" />
      <line x1="35" y1="0" x2="35" y2="40" stroke="#283593" stroke-width="1" />
      <line x1="52.5" y1="0" x2="52.5" y2="40" stroke="#283593" stroke-width="1" />
    </g>
    
    <g transform="translate(80, 100)">
      <rect width="70" height="40" rx="2" ry="2" fill="url(#solarPanelGradient)" stroke="#121858" stroke-width="1" filter="url(#shadow)" />
      <line x1="0" y1="13.3" x2="70" y2="13.3" stroke="#283593" stroke-width="1" />
      <line x1="0" y1="26.7" x2="70" y2="26.7" stroke="#283593" stroke-width="1" />
      <line x1="17.5" y1="0" x2="17.5" y2="40" stroke="#283593" stroke-width="1" />
      <line x1="35" y1="0" x2="35" y2="40" stroke="#283593" stroke-width="1" />
      <line x1="52.5" y1="0" x2="52.5" y2="40" stroke="#283593" stroke-width="1" />
    </g>
    
    <g transform="translate(160, 100)">
      <rect width="70" height="40" rx="2" ry="2" fill="url(#solarPanelGradient)" stroke="#121858" stroke-width="1" filter="url(#shadow)" />
      <line x1="0" y1="13.3" x2="70" y2="13.3" stroke="#283593" stroke-width="1" />
      <line x1="0" y1="26.7" x2="70" y2="26.7" stroke="#283593" stroke-width="1" />
      <line x1="17.5" y1="0" x2="17.5" y2="40" stroke="#283593" stroke-width="1" />
      <line x1="35" y1="0" x2="35" y2="40" stroke="#283593" stroke-width="1" />
      <line x1="52.5" y1="0" x2="52.5" y2="40" stroke="#283593" stroke-width="1" />
    </g>
    
    <g transform="translate(240, 100)">
      <rect width="70" height="40" rx="2" ry="2" fill="url(#solarPanelGradient)" stroke="#121858" stroke-width="1" filter="url(#shadow)" />
      <line x1="0" y1="13.3" x2="70" y2="13.3" stroke="#283593" stroke-width="1" />
      <line x1="0" y1="26.7" x2="70" y2="26.7" stroke="#283593" stroke-width="1" />
      <line x1="17.5" y1="0" x2="17.5" y2="40" stroke="#283593" stroke-width="1" />
      <line x1="35" y1="0" x2="35" y2="40" stroke="#283593" stroke-width="1" />
      <line x1="52.5" y1="0" x2="52.5" y2="40" stroke="#283593" stroke-width="1" />
    </g>
    
    <g transform="translate(320, 100)">
      <rect width="70" height="40" rx="2" ry="2" fill="url(#solarPanelGradient)" stroke="#121858" stroke-width="1" filter="url(#shadow)" />
      <line x1="0" y1="13.3" x2="70" y2="13.3" stroke="#283593" stroke-width="1" />
      <line x1="0" y1="26.7" x2="70" y2="26.7" stroke="#283593" stroke-width="1" />
      <line x1="17.5" y1="0" x2="17.5" y2="40" stroke="#283593" stroke-width="1" />
      <line x1="35" y1="0" x2="35" y2="40" stroke="#283593" stroke-width="1" />
      <line x1="52.5" y1="0" x2="52.5" y2="40" stroke="#283593" stroke-width="1" />
    </g>
    
    <g transform="translate(400, 100)">
      <rect width="70" height="40" rx="2" ry="2" fill="url(#solarPanelGradient)" stroke="#121858" stroke-width="1" filter="url(#shadow)" />
      <line x1="0" y1="13.3" x2="70" y2="13.3" stroke="#283593" stroke-width="1" />
      <line x1="0" y1="26.7" x2="70" y2="26.7" stroke="#283593" stroke-width="1" />
      <line x1="17.5" y1="0" x2="17.5" y2="40" stroke="#283593" stroke-width="1" />
      <line x1="35" y1="0" x2="35" y2="40" stroke="#283593" stroke-width="1" />
      <line x1="52.5" y1="0" x2="52.5" y2="40" stroke="#283593" stroke-width="1" />
    </g>
    
    <g transform="translate(480, 100)">
      <rect width="70" height="40" rx="2" ry="2" fill="url(#solarPanelGradient)" stroke="#121858" stroke-width="1" filter="url(#shadow)" />
      <line x1="0" y1="13.3" x2="70" y2="13.3" stroke="#283593" stroke-width="1" />
      <line x1="0" y1="26.7" x2="70" y2="26.7" stroke="#283593" stroke-width="1" />
      <line x1="17.5" y1="0" x2="17.5" y2="40" stroke="#283593" stroke-width="1" />
      <line x1="35" y1="0" x2="35" y2="40" stroke="#283593" stroke-width="1" />
      <line x1="52.5" y1="0" x2="52.5" y2="40" stroke="#283593" stroke-width="1" />
    </g>
  </g>
  
  <!-- Control building -->
  <rect x="250" y="230" width="120" height="60" rx="3" ry="3" fill="url(#buildingGradient)" filter="url(#shadow)" />
  <rect x="250" y="230" width="120" height="10" fill="#e0e0e0" />
  <rect x="260" y="245" width="20" height="25" fill="#bbdefb" stroke="#90caf9" stroke-width="1" />
  <rect x="290" y="245" width="20" height="25" fill="#bbdefb" stroke="#90caf9" stroke-width="1" />
  <rect x="320" y="245" width="20" height="25" fill="#bbdefb" stroke="#90caf9" stroke-width="1" />
  <rect x="340" y="265" width="20" height="25" fill="#616161" stroke="#424242" stroke-width="1" />
  
  <!-- Power distribution building -->
  <rect x="600" y="230" width="100" height="50" rx="3" ry="3" fill="url(#buildingGradient)" filter="url(#shadow)" />
  <rect x="600" y="230" width="100" height="8" fill="#e0e0e0" />
  <rect x="610" y="240" width="15" height="20" fill="#bbdefb" stroke="#90caf9" stroke-width="1" />
  <rect x="635" y="240" width="15" height="20" fill="#bbdefb" stroke="#90caf9" stroke-width="1" />
  <rect x="660" y="240" width="15" height="20" fill="#bbdefb" stroke="#90caf9" stroke-width="1" />
  <rect x="675" y="260" width="15" height="20" fill="#616161" stroke="#424242" stroke-width="1" />
  
  <!-- Transmission lines -->
  <line x1="310" y1="230" x2="310" y2="200" stroke="#616161" stroke-width="3" />
  <line x1="650" y1="230" x2="650" y2="200" stroke="#616161" stroke-width="3" />
  <line x1="310" y1="200" x2="650" y2="200" stroke="#616161" stroke-width="2" />
  <line x1="650" y1="200" x2="750" y2="150" stroke="#616161" stroke-width="2" />
  <line x1="310" y1="200" x2="350" y2="270" stroke="#616161" stroke-width="2" />
  <line x1="350" y1="270" x2="580" y2="320" stroke="#616161" stroke-width="2" />
  
  <!-- Maintenance vehicles -->
  <rect x="170" y="250" width="30" height="15" rx="3" ry="3" fill="#f57f17" filter="url(#shadow)" />
  <rect x="175" y="240" width="20" height="10" fill="#ffe0b2" />
  <circle cx="175" cy="265" r="5" fill="#212121" />
  <circle cx="195" cy="265" r="5" fill="#212121" />
  
  <rect x="500" y="280" width="30" height="15" rx="3" ry="3" fill="#0d47a1" filter="url(#shadow)" />
  <rect x="505" y="270" width="20" height="10" fill="#bbdefb" />
  <circle cx="505" cy="295" r="5" fill="#212121" />
  <circle cx="525" cy="295" r="5" fill="#212121" />
  
  <!-- Workers -->
  <g transform="translate(280, 400)">
    <circle cx="0" cy="0" r="5" fill="#795548" />
    <rect x="-2.5" y="5" width="5" height="10" fill="#1976d2" />
    <line x1="-2.5" y1="10" x2="-6" y2="15" stroke="#1976d2" stroke-width="1.5" />
    <line x1="2.5" y1="10" x2="6" y2="15" stroke="#1976d2" stroke-width="1.5" />
    <line x1="0" y1="15" x2="-4" y2="22" stroke="#795548" stroke-width="1.5" />
    <line x1="0" y1="15" x2="4" y2="22" stroke="#795548" stroke-width="1.5" />
  </g>
  
  <g transform="translate(350, 380)">
    <circle cx="0" cy="0" r="5" fill="#795548" />
    <rect x="-2.5" y="5" width="5" height="10" fill="#f57c00" />
    <line x1="-2.5" y1="10" x2="-6" y2="15" stroke="#f57c00" stroke-width="1.5" />
    <line x1="2.5" y1="10" x2="6" y2="15" stroke="#f57c00" stroke-width="1.5" />
    <line x1="0" y1="15" x2="-4" y2="22" stroke="#795548" stroke-width="1.5" />
    <line x1="0" y1="15" x2="4" y2="22" stroke="#795548" stroke-width="1.5" />
  </g>
  
  <g transform="translate(450, 420)">
    <circle cx="0" cy="0" r="5" fill="#795548" />
    <rect x="-2.5" y="5" width="5" height="10" fill="#4caf50" />
    <line x1="-2.5" y1="10" x2="-6" y2="15" stroke="#4caf50" stroke-width="1.5" />
    <line x1="2.5" y1="10" x2="6" y2="15" stroke="#4caf50" stroke-width="1.5" />
    <line x1="0" y1="15" x2="-4" y2="22" stroke="#795548" stroke-width="1.5" />
    <line x1="0" y1="15" x2="4" y2="22" stroke="#795548" stroke-width="1.5" />
  </g>
  
  <!-- Access roads -->
  <path d="M100,300 L50,280 L30,250" fill="none" stroke="#bdbdbd" stroke-width="6" stroke-dasharray="10,3" />
  <path d="M370,300 L450,280 L550,250 L600,230" fill="none" stroke="#bdbdbd" stroke-width="6" stroke-dasharray="10,3" />
</svg>