<?xml version="1.0" encoding="UTF-8"?>
<svg width="800" height="450" viewBox="0 0 800 450" xmlns="http://www.w3.org/2000/svg">
  <!-- Definitions for gradients and filters -->
  <defs>
    <linearGradient id="skyGradient" x1="0%" y1="0%" x2="0%" y2="100%">
      <stop offset="0%" style="stop-color:#3986d6;stop-opacity:1" />
      <stop offset="100%" style="stop-color:#87ceeb;stop-opacity:1" />
    </linearGradient>
    <linearGradient id="groundGradient" x1="0%" y1="0%" x2="0%" y2="100%">
      <stop offset="0%" style="stop-color:#808080;stop-opacity:1" />
      <stop offset="100%" style="stop-color:#606060;stop-opacity:1" />
    </linearGradient>
    <linearGradient id="buildingGradient1" x1="0%" y1="0%" x2="100%" y2="0%">
      <stop offset="0%" style="stop-color:#c7c7c7;stop-opacity:1" />
      <stop offset="50%" style="stop-color:#e0e0e0;stop-opacity:1" />
      <stop offset="100%" style="stop-color:#c7c7c7;stop-opacity:1" />
    </linearGradient>
    <linearGradient id="buildingGradient2" x1="0%" y1="0%" x2="100%" y2="0%">
      <stop offset="0%" style="stop-color:#d8d8d8;stop-opacity:1" />
      <stop offset="50%" style="stop-color:#f0f0f0;stop-opacity:1" />
      <stop offset="100%" style="stop-color:#d8d8d8;stop-opacity:1" />
    </linearGradient>
    <linearGradient id="roadGradient" x1="0%" y1="0%" x2="0%" y2="100%">
      <stop offset="0%" style="stop-color:#505050;stop-opacity:1" />
      <stop offset="100%" style="stop-color:#303030;stop-opacity:1" />
    </linearGradient>
    <linearGradient id="busGradient" x1="0%" y1="0%" x2="100%" y2="0%">
      <stop offset="0%" style="stop-color:#4a90e2;stop-opacity:1" />
      <stop offset="100%" style="stop-color:#2171c5;stop-opacity:1" />
    </linearGradient>
    <filter id="shadow" x="-20%" y="-20%" width="140%" height="140%">
      <feGaussianBlur in="SourceAlpha" stdDeviation="3" />
      <feOffset dx="2" dy="4" result="offsetblur" />
      <feComponentTransfer>
        <feFuncA type="linear" slope="0.3" />
      </feComponentTransfer>
      <feMerge>
        <feMergeNode />
        <feMergeNode in="SourceGraphic" />
      </feMerge>
    </filter>
  </defs>

  <!-- Background layers -->
  <rect width="800" height="180" fill="url(#skyGradient)" />
  <rect y="180" width="800" height="270" fill="url(#groundGradient)" />

  <!-- City skyline -->
  <!-- Building 1 -->
  <rect x="50" y="80" width="70" height="160" fill="url(#buildingGradient1)" filter="url(#shadow)" />
  <rect x="55" y="90" width="10" height="15" fill="#a3c2e3" />
  <rect x="75" y="90" width="10" height="15" fill="#a3c2e3" />
  <rect x="95" y="90" width="10" height="15" fill="#a3c2e3" />
  <rect x="55" y="115" width="10" height="15" fill="#a3c2e3" />
  <rect x="75" y="115" width="10" height="15" fill="#a3c2e3" />
  <rect x="95" y="115" width="10" height="15" fill="#a3c2e3" />
  <rect x="55" y="140" width="10" height="15" fill="#a3c2e3" />
  <rect x="75" y="140" width="10" height="15" fill="#a3c2e3" />
  <rect x="95" y="140" width="10" height="15" fill="#a3c2e3" />
  <rect x="55" y="165" width="10" height="15" fill="#a3c2e3" />
  <rect x="75" y="165" width="10" height="15" fill="#a3c2e3" />
  <rect x="95" y="165" width="10" height="15" fill="#a3c2e3" />
  <rect x="50" y="80" width="70" height="5" fill="#a0a0a0" />
  
  <!-- Building 2 -->
  <rect x="140" y="60" width="90" height="180" fill="url(#buildingGradient2)" filter="url(#shadow)" />
  <rect x="140" y="60" width="90" height="10" fill="#b0b0b0" />
  <rect x="150" y="80" width="15" height="20" fill="#a3c2e3" />
  <rect x="175" y="80" width="15" height="20" fill="#a3c2e3" />
  <rect x="200" y="80" width="15" height="20" fill="#a3c2e3" />
  <rect x="150" y="110" width="15" height="20" fill="#a3c2e3" />
  <rect x="175" y="110" width="15" height="20" fill="#a3c2e3" />
  <rect x="200" y="110" width="15" height="20" fill="#a3c2e3" />
  <rect x="150" y="140" width="15" height="20" fill="#a3c2e3" />
  <rect x="175" y="140" width="15" height="20" fill="#a3c2e3" />
  <rect x="200" y="140" width="15" height="20" fill="#a3c2e3" />
  <rect x="150" y="170" width="15" height="20" fill="#a3c2e3" />
  <rect x="175" y="170" width="15" height="20" fill="#a3c2e3" />
  <rect x="200" y="170" width="15" height="20" fill="#a3c2e3" />
  
  <!-- Building 3 -->
  <rect x="260" y="30" width="60" height="210" fill="url(#buildingGradient1)" filter="url(#shadow)" />
  <rect x="260" y="30" width="60" height="8" fill="#a0a0a0" />
  <rect x="270" y="45" width="10" height="15" fill="#a3c2e3" />
  <rect x="290" y="45" width="10" height="15" fill="#a3c2e3" />
  <rect x="270" y="70" width="10" height="15" fill="#a3c2e3" />
  <rect x="290" y="70" width="10" height="15" fill="#a3c2e3" />
  <rect x="270" y="95" width="10" height="15" fill="#a3c2e3" />
  <rect x="290" y="95" width="10" height="15" fill="#a3c2e3" />
  <rect x="270" y="120" width="10" height="15" fill="#a3c2e3" />
  <rect x="290" y="120" width="10" height="15" fill="#a3c2e3" />
  <rect x="270" y="145" width="10" height="15" fill="#a3c2e3" />
  <rect x="290" y="145" width="10" height="15" fill="#a3c2e3" />
  <rect x="270" y="170" width="10" height="15" fill="#a3c2e3" />
  <rect x="290" y="170" width="10" height="15" fill="#a3c2e3" />
  <rect x="270" y="195" width="10" height="15" fill="#a3c2e3" />
  <rect x="290" y="195" width="10" height="15" fill="#a3c2e3" />
  
  <!-- Building 4 -->
  <rect x="350" y="100" width="80" height="140" fill="url(#buildingGradient2)" filter="url(#shadow)" />
  <rect x="350" y="100" width="80" height="7" fill="#b0b0b0" />
  <rect x="360" y="115" width="12" height="18" fill="#a3c2e3" />
  <rect x="382" y="115" width="12" height="18" fill="#a3c2e3" />
  <rect x="404" y="115" width="12" height="18" fill="#a3c2e3" />
  <rect x="360" y="143" width="12" height="18" fill="#a3c2e3" />
  <rect x="382" y="143" width="12" height="18" fill="#a3c2e3" />
  <rect x="404" y="143" width="12" height="18" fill="#a3c2e3" />
  <rect x="360" y="171" width="12" height="18" fill="#a3c2e3" />
  <rect x="382" y="171" width="12" height="18" fill="#a3c2e3" />
  <rect x="404" y="171" width="12" height="18" fill="#a3c2e3" />

  <!-- Building 5 -->
  <rect x="460" y="70" width="100" height="170" fill="url(#buildingGradient1)" filter="url(#shadow)" />
  <rect x="460" y="70" width="100" height="10" fill="#a0a0a0" />
  <rect x="470" y="90" width="15" height="25" fill="#a3c2e3" />
  <rect x="495" y="90" width="15" height="25" fill="#a3c2e3" />
  <rect x="520" y="90" width="15" height="25" fill="#a3c2e3" />
  <rect x="545" y="90" width="15" height="25" fill="#a3c2e3" />
  <rect x="470" y="125" width="15" height="25" fill="#a3c2e3" />
  <rect x="495" y="125" width="15" height="25" fill="#a3c2e3" />
  <rect x="520" y="125" width="15" height="25" fill="#a3c2e3" />
  <rect x="545" y="125" width="15" height="25" fill="#a3c2e3" />
  <rect x="470" y="160" width="15" height="25" fill="#a3c2e3" />
  <rect x="495" y="160" width="15" height="25" fill="#a3c2e3" />
  <rect x="520" y="160" width="15" height="25" fill="#a3c2e3" />
  <rect x="545" y="160" width="15" height="25" fill="#a3c2e3" />
  
  <!-- Building 6 -->
  <rect x="590" y="40" width="70" height="200" fill="url(#buildingGradient2)" filter="url(#shadow)" />
  <rect x="590" y="40" width="70" height="8" fill="#b0b0b0" />
  <rect x="600" y="55" width="10" height="15" fill="#a3c2e3" />
  <rect x="620" y="55" width="10" height="15" fill="#a3c2e3" />
  <rect x="640" y="55" width="10" height="15" fill="#a3c2e3" />
  <rect x="600" y="80" width="10" height="15" fill="#a3c2e3" />
  <rect x="620" y="80" width="10" height="15" fill="#a3c2e3" />
  <rect x="640" y="80" width="10" height="15" fill="#a3c2e3" />
  <rect x="600" y="105" width="10" height="15" fill="#a3c2e3" />
  <rect x="620" y="105" width="10" height="15" fill="#a3c2e3" />
  <rect x="640" y="105" width="10" height="15" fill="#a3c2e3" />
  <rect x="600" y="130" width="10" height="15" fill="#a3c2e3" />
  <rect x="620" y="130" width="10" height="15" fill="#a3c2e3" />
  <rect x="640" y="130" width="10" height="15" fill="#a3c2e3" />
  <rect x="600" y="155" width="10" height="15" fill="#a3c2e3" />
  <rect x="620" y="155" width="10" height="15" fill="#a3c2e3" />
  <rect x="640" y="155" width="10" height="15" fill="#a3c2e3" />
  <rect x="600" y="180" width="10" height="15" fill="#a3c2e3" />
  <rect x="620" y="180" width="10" height="15" fill="#a3c2e3" />
  <rect x="640" y="180" width="10" height="15" fill="#a3c2e3" />
  
  <!-- Building 7 -->
  <rect x="690" y="90" width="90" height="150" fill="url(#buildingGradient1)" filter="url(#shadow)" />
  <rect x="690" y="90" width="90" height="10" fill="#a0a0a0" />
  <rect x="700" y="110" width="15" height="20" fill="#a3c2e3" />
  <rect x="725" y="110" width="15" height="20" fill="#a3c2e3" />
  <rect x="750" y="110" width="15" height="20" fill="#a3c2e3" />
  <rect x="700" y="140" width="15" height="20" fill="#a3c2e3" />
  <rect x="725" y="140" width="15" height="20" fill="#a3c2e3" />
  <rect x="750" y="140" width="15" height="20" fill="#a3c2e3" />
  <rect x="700" y="170" width="15" height="20" fill="#a3c2e3" />
  <rect x="725" y="170" width="15" height="20" fill="#a3c2e3" />
  <rect x="750" y="170" width="15" height="20" fill="#a3c2e3" />
  
  <!-- Main road -->
  <rect x="0" y="250" width="800" height="80" fill="url(#roadGradient)" />
  <rect x="0" y="290" width="800" height="3" fill="white" stroke="none" />
  <rect x="0" y="293" width="800" height="1" fill="#ffeb3b" stroke="none" />
  
  <!-- Road markings -->
  <rect x="50" y="277" width="30" height="5" fill="white" />
  <rect x="100" y="277" width="30" height="5" fill="white" />
  <rect x="150" y="277" width="30" height="5" fill="white" />
  <rect x="200" y="277" width="30" height="5" fill="white" />
  <rect x="250" y="277" width="30" height="5" fill="white" />
  <rect x="300" y="277" width="30" height="5" fill="white" />
  <rect x="350" y="277" width="30" height="5" fill="white" />
  <rect x="400" y="277" width="30" height="5" fill="white" />
  <rect x="450" y="277" width="30" height="5" fill="white" />
  <rect x="500" y="277" width="30" height="5" fill="white" />
  <rect x="550" y="277" width="30" height="5" fill="white" />
  <rect x="600" y="277" width="30" height="5" fill="white" />
  <rect x="650" y="277" width="30" height="5" fill="white" />
  <rect x="700" y="277" width="30" height="5" fill="white" />
  <rect x="750" y="277" width="30" height="5" fill="white" />
  
  <!-- BRT station -->
  <rect x="450" y="200" width="150" height="50" rx="5" ry="5" fill="#f0f0f0" filter="url(#shadow)" />
  <rect x="460" y="200" width="130" height="8" fill="#4a90e2" />
  <rect x="480" y="225" width="30" height="25" fill="#e8e8e8" />
  <rect x="540" y="225" width="30" height="25" fill="#e8e8e8" />
  
  <!-- BRT buses -->
  <!-- Bus 1 -->
  <rect x="180" y="270" width="80" height="30" rx="5" ry="5" fill="url(#busGradient)" filter="url(#shadow)" />
  <rect x="185" y="275" width="70" height="15" rx="3" ry="3" fill="#dae9f7" />
  <circle cx="195" cy="300" r="5" fill="#333" />
  <circle cx="195" cy="300" r="2" fill="#666" />
  <circle cx="245" cy="300" r="5" fill="#333" />
  <circle cx="245" cy="300" r="2" fill="#666" />
  
  <!-- Bus 2 -->
  <rect x="530" y="310" width="80" height="30" rx="5" ry="5" fill="url(#busGradient)" filter="url(#shadow)" />
  <rect x="535" y="315" width="70" height="15" rx="3" ry="3" fill="#dae9f7" />
  <circle cx="545" cy="340" r="5" fill="#333" />
  <circle cx="545" cy="340" r="2" fill="#666" />
  <circle cx="595" cy="340" r="5" fill="#333" />
  <circle cx="595" cy="340" r="2" fill="#666" />
  
  <!-- Pedestrian walkway -->
  <rect x="300" y="350" width="200" height="30" fill="#aaa" />
  <rect x="310" y="355" width="15" height="20" fill="#888" />
  <rect x="335" y="355" width="15" height="20" fill="#888" />
  <rect x="360" y="355" width="15" height="20" fill="#888" />
  <rect x="385" y="355" width="15" height="20" fill="#888" />
  <rect x="410" y="355" width="15" height="20" fill="#888" />
  <rect x="435" y="355" width="15" height="20" fill="#888" />
  <rect x="460" y="355" width="15" height="20" fill="#888" />
  <rect x="485" y="355" width="15" height="20" fill="#888" />
  
  <!-- People -->
  <circle cx="320" cy="380" r="5" fill="#555" />
  <rect x="318" y="385" width="4" height="10" fill="#555" />
  <line x1="318" y1="390" x2="315" y2="395" stroke="#555" stroke-width="2" />
  <line x1="322" y1="390" x2="325" y2="395" stroke="#555" stroke-width="2" />
  
  <circle cx="380" cy="388" r="5" fill="#555" />
  <rect x="378" y="393" width="4" height="10" fill="#555" />
  <line x1="378" y1="398" x2="375" y2="403" stroke="#555" stroke-width="2" />
  <line x1="382" y1="398" x2="385" y2="403" stroke="#555" stroke-width="2" />
  
  <circle cx="440" cy="375" r="5" fill="#555" />
  <rect x="438" y="380" width="4" height="10" fill="#555" />
  <line x1="438" y1="385" x2="435" y2="390" stroke="#555" stroke-width="2" />
  <line x1="442" y1="385" x2="445" y2="390" stroke="#555" stroke-width="2" />
  
  <!-- Traffic lights -->
  <rect x="100" y="200" width="10" height="30" fill="#666" />
  <rect x="95" y="200" width="20" height="10" rx="2" ry="2" fill="#444" />
  <circle cx="100" cy="205" r="3" fill="#ff5252" />
  <circle cx="110" cy="205" r="3" fill="#ffeb3b" />
  <circle cx="105" cy="205" r="3" fill="#4caf50" />
  
  <rect x="700" y="200" width="10" height="30" fill="#666" />
  <rect x="695" y="200" width="20" height="10" rx="2" ry="2" fill="#444" />
  <circle cx="700" cy="205" r="3" fill="#ff5252" />
  <circle cx="710" cy="205" r="3" fill="#ffeb3b" />
  <circle cx="705" cy="205" r="3" fill="#4caf50" />
</svg>