<?xml version="1.0" encoding="UTF-8"?>
<svg width="800" height="450" viewBox="0 0 800 450" xmlns="http://www.w3.org/2000/svg">
  <!-- Definitions for gradients and filters -->
  <defs>
    <linearGradient id="skyGradient" x1="0%" y1="0%" x2="0%" y2="100%">
      <stop offset="0%" style="stop-color:#4a90e2;stop-opacity:1" />
      <stop offset="100%" style="stop-color:#87ceeb;stop-opacity:1" />
    </linearGradient>
    <linearGradient id="groundGradient" x1="0%" y1="0%" x2="0%" y2="100%">
      <stop offset="0%" style="stop-color:#7cb342;stop-opacity:1" />
      <stop offset="100%" style="stop-color:#558b2f;stop-opacity:1" />
    </linearGradient>
    <linearGradient id="buildingGradient1" x1="0%" y1="0%" x2="100%" y2="0%">
      <stop offset="0%" style="stop-color:#e3f2fd;stop-opacity:1" />
      <stop offset="50%" style="stop-color:#f5f5f5;stop-opacity:1" />
      <stop offset="100%" style="stop-color:#e3f2fd;stop-opacity:1" />
    </linearGradient>
    <linearGradient id="buildingGradient2" x1="0%" y1="0%" x2="100%" y2="0%">
      <stop offset="0%" style="stop-color:#fff9c4;stop-opacity:1" />
      <stop offset="50%" style="stop-color:#fffde7;stop-opacity:1" />
      <stop offset="100%" style="stop-color:#fff9c4;stop-opacity:1" />
    </linearGradient>
    <linearGradient id="roofGradient" x1="0%" y1="0%" x2="100%" y2="0%">
      <stop offset="0%" style="stop-color:#bf360c;stop-opacity:1" />
      <stop offset="50%" style="stop-color:#e64a19;stop-opacity:1" />
      <stop offset="100%" style="stop-color:#bf360c;stop-opacity:1" />
    </linearGradient>
    <filter id="shadow" x="-20%" y="-20%" width="140%" height="140%">
      <feGaussianBlur in="SourceAlpha" stdDeviation="3" />
      <feOffset dx="2" dy="4" result="offsetblur" />
      <feComponentTransfer>
        <feFuncA type="linear" slope="0.3" />
      </feComponentTransfer>
      <feMerge>
        <feMergeNode />
        <feMergeNode in="SourceGraphic" />
      </feMerge>
    </filter>
  </defs>

  <!-- Background layers -->
  <rect width="800" height="200" fill="url(#skyGradient)" />
  <rect y="200" width="800" height="250" fill="url(#groundGradient)" />

  <!-- Housing complex -->
  <!-- Main apartment building 1 -->
  <g transform="translate(50, 130)">
    <rect width="200" height="150" fill="url(#buildingGradient1)" filter="url(#shadow)" />
    <rect width="200" height="10" fill="#b0c4de" />
    
    <!-- Windows -->
    <rect x="20" y="30" width="15" height="20" fill="#a3c2e3" stroke="#8fb7e3" stroke-width="1" />
    <rect x="45" y="30" width="15" height="20" fill="#a3c2e3" stroke="#8fb7e3" stroke-width="1" />
    <rect x="70" y="30" width="15" height="20" fill="#a3c2e3" stroke="#8fb7e3" stroke-width="1" />
    <rect x="95" y="30" width="15" height="20" fill="#a3c2e3" stroke="#8fb7e3" stroke-width="1" />
    <rect x="120" y="30" width="15" height="20" fill="#a3c2e3" stroke="#8fb7e3" stroke-width="1" />
    <rect x="145" y="30" width="15" height="20" fill="#a3c2e3" stroke="#8fb7e3" stroke-width="1" />
    <rect x="170" y="30" width="15" height="20" fill="#a3c2e3" stroke="#8fb7e3" stroke-width="1" />
    
    <rect x="20" y="60" width="15" height="20" fill="#a3c2e3" stroke="#8fb7e3" stroke-width="1" />
    <rect x="45" y="60" width="15" height="20" fill="#a3c2e3" stroke="#8fb7e3" stroke-width="1" />
    <rect x="70" y="60" width="15" height="20" fill="#a3c2e3" stroke="#8fb7e3" stroke-width="1" />
    <rect x="95" y="60" width="15" height="20" fill="#a3c2e3" stroke="#8fb7e3" stroke-width="1" />
    <rect x="120" y="60" width="15" height="20" fill="#a3c2e3" stroke="#8fb7e3" stroke-width="1" />
    <rect x="145" y="60" width="15" height="20" fill="#a3c2e3" stroke="#8fb7e3" stroke-width="1" />
    <rect x="170" y="60" width="15" height="20" fill="#a3c2e3" stroke="#8fb7e3" stroke-width="1" />
    
    <rect x="20" y="90" width="15" height="20" fill="#a3c2e3" stroke="#8fb7e3" stroke-width="1" />
    <rect x="45" y="90" width="15" height="20" fill="#a3c2e3" stroke="#8fb7e3" stroke-width="1" />
    <rect x="70" y="90" width="15" height="20" fill="#a3c2e3" stroke="#8fb7e3" stroke-width="1" />
    <rect x="95" y="90" width="15" height="20" fill="#a3c2e3" stroke="#8fb7e3" stroke-width="1" />
    <rect x="120" y="90" width="15" height="20" fill="#a3c2e3" stroke="#8fb7e3" stroke-width="1" />
    <rect x="145" y="90" width="15" height="20" fill="#a3c2e3" stroke="#8fb7e3" stroke-width="1" />
    <rect x="170" y="90" width="15" height="20" fill="#a3c2e3" stroke="#8fb7e3" stroke-width="1" />
    
    <!-- Door -->
    <rect x="95" y="120" width="20" height="30" fill="#5d4037" stroke="#4e342e" stroke-width="1" />
    <circle cx="110" cy="135" r="2" fill="#ffd700" />
    
    <!-- Balconies -->
    <rect x="25" y="125" width="60" height="5" fill="#90a4ae" />
    <line x1="30" y1="125" x2="30" y2="140" stroke="#90a4ae" stroke-width="1" />
    <line x1="40" y1="125" x2="40" y2="140" stroke="#90a4ae" stroke-width="1" />
    <line x1="50" y1="125" x2="50" y2="140" stroke="#90a4ae" stroke-width="1" />
    <line x1="60" y1="125" x2="60" y2="140" stroke="#90a4ae" stroke-width="1" />
    <line x1="70" y1="125" x2="70" y2="140" stroke="#90a4ae" stroke-width="1" />
    <rect x="25" y="140" width="60" height="2" fill="#90a4ae" />
    
    <rect x="125" y="125" width="60" height="5" fill="#90a4ae" />
    <line x1="130" y1="125" x2="130" y2="140" stroke="#90a4ae" stroke-width="1" />
    <line x1="140" y1="125" x2="140" y2="140" stroke="#90a4ae" stroke-width="1" />
    <line x1="150" y1="125" x2="150" y2="140" stroke="#90a4ae" stroke-width="1" />
    <line x1="160" y1="125" x2="160" y2="140" stroke="#90a4ae" stroke-width="1" />
    <line x1="170" y1="125" x2="170" y2="140" stroke="#90a4ae" stroke-width="1" />
    <rect x="125" y="140" width="60" height="2" fill="#90a4ae" />
  </g>
  
  <!-- Main apartment building 2 -->
  <g transform="translate(300, 100)">
    <rect width="180" height="180" fill="url(#buildingGradient1)" filter="url(#shadow)" />
    <rect width="180" height="10" fill="#b0c4de" />
    
    <!-- Windows -->
    <rect x="15" y="25" width="15" height="20" fill="#a3c2e3" stroke="#8fb7e3" stroke-width="1" />
    <rect x="40" y="25" width="15" height="20" fill="#a3c2e3" stroke="#8fb7e3" stroke-width="1" />
    <rect x="65" y="25" width="15" height="20" fill="#a3c2e3" stroke="#8fb7e3" stroke-width="1" />
    <rect x="90" y="25" width="15" height="20" fill="#a3c2e3" stroke="#8fb7e3" stroke-width="1" />
    <rect x="115" y="25" width="15" height="20" fill="#a3c2e3" stroke="#8fb7e3" stroke-width="1" />
    <rect x="140" y="25" width="15" height="20" fill="#a3c2e3" stroke="#8fb7e3" stroke-width="1" />
    
    <rect x="15" y="55" width="15" height="20" fill="#a3c2e3" stroke="#8fb7e3" stroke-width="1" />
    <rect x="40" y="55" width="15" height="20" fill="#a3c2e3" stroke="#8fb7e3" stroke-width="1" />
    <rect x="65" y="55" width="15" height="20" fill="#a3c2e3" stroke="#8fb7e3" stroke-width="1" />
    <rect x="90" y="55" width="15" height="20" fill="#a3c2e3" stroke="#8fb7e3" stroke-width="1" />
    <rect x="115" y="55" width="15" height="20" fill="#a3c2e3" stroke="#8fb7e3" stroke-width="1" />
    <rect x="140" y="55" width="15" height="20" fill="#a3c2e3" stroke="#8fb7e3" stroke-width="1" />
    
    <rect x="15" y="85" width="15" height="20" fill="#a3c2e3" stroke="#8fb7e3" stroke-width="1" />
    <rect x="40" y="85" width="15" height="20" fill="#a3c2e3" stroke="#8fb7e3" stroke-width="1" />
    <rect x="65" y="85" width="15" height="20" fill="#a3c2e3" stroke="#8fb7e3" stroke-width="1" />
    <rect x="90" y="85" width="15" height="20" fill="#a3c2e3" stroke="#8fb7e3" stroke-width="1" />
    <rect x="115" y="85" width="15" height="20" fill="#a3c2e3" stroke="#8fb7e3" stroke-width="1" />
    <rect x="140" y="85" width="15" height="20" fill="#a3c2e3" stroke="#8fb7e3" stroke-width="1" />
    
    <rect x="15" y="115" width="15" height="20" fill="#a3c2e3" stroke="#8fb7e3" stroke-width="1" />
    <rect x="40" y="115" width="15" height="20" fill="#a3c2e3" stroke="#8fb7e3" stroke-width="1" />
    <rect x="65" y="115" width="15" height="20" fill="#a3c2e3" stroke="#8fb7e3" stroke-width="1" />
    <rect x="90" y="115" width="15" height="20" fill="#a3c2e3" stroke="#8fb7e3" stroke-width="1" />
    <rect x="115" y="115" width="15" height="20" fill="#a3c2e3" stroke="#8fb7e3" stroke-width="1" />
    <rect x="140" y="115" width="15" height="20" fill="#a3c2e3" stroke="#8fb7e3" stroke-width="1" />
    
    <!-- Door -->
    <rect x="80" y="150" width="20" height="30" fill="#5d4037" stroke="#4e342e" stroke-width="1" />
    <circle cx="95" cy="165" r="2" fill="#ffd700" />
    
    <!-- Solar panels on roof -->
    <g transform="translate(20, 10)">
      <rect width="28" height="18" rx="1" ry="1" fill="#1a3c5e" stroke="#0a1a2a" stroke-width="0.5" />
      <line x1="0" y1="6" x2="28" y2="6" stroke="#235689" stroke-width="0.5" />
      <line x1="0" y1="12" x2="28" y2="12" stroke="#235689" stroke-width="0.5" />
      <line x1="7" y1="0" x2="7" y2="18" stroke="#235689" stroke-width="0.5" />
      <line x1="14" y1="0" x2="14" y2="18" stroke="#235689" stroke-width="0.5" />
      <line x1="21" y1="0" x2="21" y2="18" stroke="#235689" stroke-width="0.5" />
    </g>
    
    <g transform="translate(55, 10)">
      <rect width="28" height="18" rx="1" ry="1" fill="#1a3c5e" stroke="#0a1a2a" stroke-width="0.5" />
      <line x1="0" y1="6" x2="28" y2="6" stroke="#235689" stroke-width="0.5" />
      <line x1="0" y1="12" x2="28" y2="12" stroke="#235689" stroke-width="0.5" />
      <line x1="7" y1="0" x2="7" y2="18" stroke="#235689" stroke-width="0.5" />
      <line x1="14" y1="0" x2="14" y2="18" stroke="#235689" stroke-width="0.5" />
      <line x1="21" y1="0" x2="21" y2="18" stroke="#235689" stroke-width="0.5" />
    </g>
    
    <g transform="translate(90, 10)">
      <rect width="28" height="18" rx="1" ry="1" fill="#1a3c5e" stroke="#0a1a2a" stroke-width="0.5" />
      <line x1="0" y1="6" x2="28" y2="6" stroke="#235689" stroke-width="0.5" />
      <line x1="0" y1="12" x2="28" y2="12" stroke="#235689" stroke-width="0.5" />
      <line x1="7" y1="0" x2="7" y2="18" stroke="#235689" stroke-width="0.5" />
      <line x1="14" y1="0" x2="14" y2="18" stroke="#235689" stroke-width="0.5" />
      <line x1="21" y1="0" x2="21" y2="18" stroke="#235689" stroke-width="0.5" />
    </g>
    
    <g transform="translate(125, 10)">
      <rect width="28" height="18" rx="1" ry="1" fill="#1a3c5e" stroke="#0a1a2a" stroke-width="0.5" />
      <line x1="0" y1="6" x2="28" y2="6" stroke="#235689" stroke-width="0.5" />
      <line x1="0" y1="12" x2="28" y2="12" stroke="#235689" stroke-width="0.5" />
      <line x1="7" y1="0" x2="7" y2="18" stroke="#235689" stroke-width="0.5" />
      <line x1="14" y1="0" x2="14" y2="18" stroke="#235689" stroke-width="0.5" />
      <line x1="21" y1="0" x2="21" y2="18" stroke="#235689" stroke-width="0.5" />
    </g>
  </g>
  
  <!-- Townhouse row -->
  <g transform="translate(530, 160)">
    <!-- House 1 -->
    <rect x="0" y="0" width="60" height="70" fill="url(#buildingGradient2)" filter="url(#shadow)" />
    <polygon points="0,0 30,30 60,0" fill="url(#roofGradient)" filter="url(#shadow)" />
    <rect x="10" y="20" width="15" height="20" fill="#a3c2e3" stroke="#8fb7e3" stroke-width="1" />
    <rect x="35" y="20" width="15" height="20" fill="#a3c2e3" stroke="#8fb7e3" stroke-width="1" />
    <rect x="25" y="50" width="15" height="20" fill="#5d4037" stroke="#4e342e" stroke-width="1" />
    <circle cx="35" cy="60" r="2" fill="#ffd700" />
    
    <!-- House 2 -->
    <rect x="70" y="0" width="60" height="70" fill="url(#buildingGradient2)" filter="url(#shadow)" />
    <polygon points="70,0 100,30 130,0" fill="url(#roofGradient)" filter="url(#shadow)" />
    <rect x="80" y="20" width="15" height="20" fill="#a3c2e3" stroke="#8fb7e3" stroke-width="1" />
    <rect x="105" y="20" width="15" height="20" fill="#a3c2e3" stroke="#8fb7e3" stroke-width="1" />
    <rect x="95" y="50" width="15" height="20" fill="#5d4037" stroke="#4e342e" stroke-width="1" />
    <circle cx="105" cy="60" r="2" fill="#ffd700" />
    
    <!-- House 3 -->
    <rect x="140" y="0" width="60" height="70" fill="url(#buildingGradient2)" filter="url(#shadow)" />
    <polygon points="140,0 170,30 200,0" fill="url(#roofGradient)" filter="url(#shadow)" />
    <rect x="150" y="20" width="15" height="20" fill="#a3c2e3" stroke="#8fb7e3" stroke-width="1" />
    <rect x="175" y="20" width="15" height="20" fill="#a3c2e3" stroke="#8fb7e3" stroke-width="1" />
    <rect x="165" y="50" width="15" height="20" fill="#5d4037" stroke="#4e342e" stroke-width="1" />
    <circle cx="175" cy="60" r="2" fill="#ffd700" />
  </g>
  
  <!-- Community center -->
  <rect x="150" y="320" width="120" height="80" rx="5" ry="5" fill="#f5f5f5" filter="url(#shadow)" />
  <rect x="160" y="320" width="100" height="10" fill="#4a90e2" />
  <rect x="175" y="340" width="20" height="30" fill="#a3c2e3" stroke="#8fb7e3" stroke-width="1" />
  <rect x="205" y="340" width="20" height="30" fill="#a3c2e3" stroke="#8fb7e3" stroke-width="1" />
  <rect x="195" y="380" width="20" height="20" fill="#5d4037" stroke="#4e342e" stroke-width="1" />
  
  <!-- Playground -->
  <rect x="320" y="350" width="100" height="60" rx="3" ry="3" fill="#fff9c4" stroke="#ffd54f" stroke-width="2" filter="url(#shadow)" />
  <circle cx="340" cy="370" r="5" fill="#f44336" />
  <rect x="360" y="360" width="30" height="10" fill="#4caf50" />
  <polygon points="395,360 405,360 400,370" fill="#4caf50" />
  <circle cx="390" cy="390" r="10" fill="#2196f3" />
  
  <!-- Garden/green space -->
  <rect x="450" y="350" width="150" height="60" rx="3" ry="3" fill="#81c784" stroke="#66bb6a" stroke-width="2" filter="url(#shadow)" />
  
  <!-- Trees -->
  <g transform="translate(470, 370)">
    <rect x="0" y="0" width="5" height="15" fill="#795548" />
    <circle cx="2.5" cy="-5" r="10" fill="#388e3c" />
  </g>
  
  <g transform="translate(500, 360)">
    <rect x="0" y="0" width="5" height="20" fill="#795548" />
    <circle cx="2.5" cy="-8" r="12" fill="#388e3c" />
  </g>
  
  <g transform="translate(530, 375)">
    <rect x="0" y="0" width="4" height="12" fill="#795548" />
    <circle cx="2" cy="-5" r="8" fill="#388e3c" />
  </g>
  
  <g transform="translate(560, 365)">
    <rect x="0" y="0" width="5" height="18" fill="#795548" />
    <circle cx="2.5" cy="-7" r="11" fill="#388e3c" />
  </g>
  
  <g transform="translate(585, 370)">
    <rect x="0" y="0" width="4" height="15" fill="#795548" />
    <circle cx="2" cy="-6" r="9" fill="#388e3c" />
  </g>
  
  <!-- Paths -->
  <path d="M250,280 L250,320 L210,320 M250,320 L350,320 L350,350 M350,320 L450,320 L450,350" fill="none" stroke="#e0e0e0" stroke-width="5" />
  <path d="M480,230 L480,280 L450,320" fill="none" stroke="#e0e0e0" stroke-width="5" />
  <path d="M150,280 L150,320" fill="none" stroke="#e0e0e0" stroke-width="5" />
  
  <!-- People -->
  <g transform="translate(230, 300)">
    <circle cx="0" cy="0" r="4" fill="#555" />
    <rect x="-2" y="4" width="4" height="8" fill="#555" />
    <line x1="-2" y1="8" x2="-4" y2="12" stroke="#555" stroke-width="1.5" />
    <line x1="2" y1="8" x2="4" y2="12" stroke="#555" stroke-width="1.5" />
  </g>
  
  <g transform="translate(480, 300)">
    <circle cx="0" cy="0" r="4" fill="#555" />
    <rect x="-2" y="4" width="4" height="8" fill="#555" />
    <line x1="-2" y1="8" x2="-4" y2="12" stroke="#555" stroke-width="1.5" />
    <line x1="2" y1="8" x2="4" y2="12" stroke="#555" stroke-width="1.5" />
  </g>
</svg>