<?xml version="1.0" encoding="UTF-8"?>
<svg width="800" height="450" viewBox="0 0 800 450" xmlns="http://www.w3.org/2000/svg">
  <!-- Definitions for gradients and filters -->
  <defs>
    <linearGradient id="skyGradient" x1="0%" y1="0%" x2="0%" y2="100%">
      <stop offset="0%" style="stop-color:#4a90e2;stop-opacity:1" />
      <stop offset="100%" style="stop-color:#87ceeb;stop-opacity:1" />
    </linearGradient>
    <linearGradient id="groundGradient" x1="0%" y1="0%" x2="0%" y2="100%">
      <stop offset="0%" style="stop-color:#e6d7b3;stop-opacity:1" />
      <stop offset="100%" style="stop-color:#d9c99a;stop-opacity:1" />
    </linearGradient>
    <linearGradient id="solarPanelGradient" x1="0%" y1="0%" x2="100%" y2="100%">
      <stop offset="0%" style="stop-color:#1a3c5e;stop-opacity:1" />
      <stop offset="50%" style="stop-color:#2d5f8e;stop-opacity:1" />
      <stop offset="100%" style="stop-color:#1a3c5e;stop-opacity:1" />
    </linearGradient>
    <filter id="shadow" x="-20%" y="-20%" width="140%" height="140%">
      <feGaussianBlur in="SourceAlpha" stdDeviation="3" />
      <feOffset dx="2" dy="4" result="offsetblur" />
      <feComponentTransfer>
        <feFuncA type="linear" slope="0.2" />
      </feComponentTransfer>
      <feMerge>
        <feMergeNode />
        <feMergeNode in="SourceGraphic" />
      </feMerge>
    </filter>
    <radialGradient id="sunGlow" cx="50%" cy="50%" r="50%" fx="50%" fy="50%">
      <stop offset="0%" style="stop-color:#ffff88;stop-opacity:1" />
      <stop offset="80%" style="stop-color:#ffcc00;stop-opacity:1" />
      <stop offset="100%" style="stop-color:#ff9900;stop-opacity:1" />
    </radialGradient>
  </defs>

  <!-- Background layers -->
  <rect width="800" height="250" fill="url(#skyGradient)" />
  <rect y="250" width="800" height="200" fill="url(#groundGradient)" />

  <!-- Mountains with volcanic features (Olkaria is in volcanic area) -->
  <path d="M0,250 L150,100 L250,170 L350,90 L450,200 L550,120 L650,170 L750,80 L800,130 L800,250 Z" fill="#8b6d4f" opacity="0.9" />
  <path d="M0,250 L100,180 L200,220 L300,150 L400,230 L500,170 L600,210 L700,140 L800,190 L800,250 Z" fill="#70573e" opacity="0.7" />
  
  <!-- Geothermal steam vents -->
  <ellipse cx="200" cy="240" rx="6" ry="3" fill="white" opacity="0.7" />
  <ellipse cx="260" cy="245" rx="5" ry="3" fill="white" opacity="0.6" />
  <ellipse cx="480" cy="235" rx="7" ry="4" fill="white" opacity="0.7" />
  <ellipse cx="600" cy="242" rx="6" ry="3" fill="white" opacity="0.6" />
  
  <!-- Sun with glow effect -->
  <circle cx="650" cy="100" r="40" fill="#ffff88" filter="url(#shadow)" opacity="0.7" />
  <circle cx="650" cy="100" r="32" fill="url(#sunGlow)" />
  
  <!-- Modern manufacturing facility with architectural details -->
  <rect x="100" y="270" width="240" height="120" rx="3" ry="3" fill="#f2f2f2" filter="url(#shadow)" />
  <rect x="100" y="270" width="240" height="20" rx="3" ry="3" fill="#b0c4de" />
  
  <!-- Manufacturing facility windows -->
  <rect x="120" y="300" width="20" height="30" fill="#d0e4f7" stroke="#a3c2e3" stroke-width="1" />
  <rect x="150" y="300" width="20" height="30" fill="#d0e4f7" stroke="#a3c2e3" stroke-width="1" />
  <rect x="180" y="300" width="20" height="30" fill="#d0e4f7" stroke="#a3c2e3" stroke-width="1" />
  <rect x="210" y="300" width="20" height="30" fill="#d0e4f7" stroke="#a3c2e3" stroke-width="1" />
  <rect x="240" y="300" width="20" height="30" fill="#d0e4f7" stroke="#a3c2e3" stroke-width="1" />
  <rect x="270" y="300" width="20" height="30" fill="#d0e4f7" stroke="#a3c2e3" stroke-width="1" />
  
  <!-- Main entrance -->
  <rect x="190" y="355" width="30" height="35" fill="#a0a0a0" />
  <line x1="205" y1="355" x2="205" y2="390" stroke="#888" stroke-width="1" />
  
  <!-- Solar production facility with clean lines -->
  <rect x="400" y="270" width="280" height="140" rx="3" ry="3" fill="#ffffff" filter="url(#shadow)" />
  <rect x="400" y="270" width="280" height="25" fill="#b0c4de" />
  
  <!-- Roof-mounted solar panels in professional arrangement -->
  <g transform="translate(420, 270)">
    <rect width="30" height="25" fill="#1a3c5e" stroke="#0a1a2a" stroke-width="0.5" transform="skewX(-15)" />
    <rect width="30" height="25" fill="#1a3c5e" stroke="#0a1a2a" stroke-width="0.5" transform="translate(35, 0) skewX(-15)" />
    <rect width="30" height="25" fill="#1a3c5e" stroke="#0a1a2a" stroke-width="0.5" transform="translate(70, 0) skewX(-15)" />
    <rect width="30" height="25" fill="#1a3c5e" stroke="#0a1a2a" stroke-width="0.5" transform="translate(105, 0) skewX(-15)" />
    <rect width="30" height="25" fill="#1a3c5e" stroke="#0a1a2a" stroke-width="0.5" transform="translate(140, 0) skewX(-15)" />
    <rect width="30" height="25" fill="#1a3c5e" stroke="#0a1a2a" stroke-width="0.5" transform="translate(175, 0) skewX(-15)" />
    <rect width="30" height="25" fill="#1a3c5e" stroke="#0a1a2a" stroke-width="0.5" transform="translate(210, 0) skewX(-15)" />
  </g>
  
  <!-- Solar panels being manufactured inside with realistic details -->
  <g transform="translate(430, 310)">
    <rect width="60" height="45" fill="url(#solarPanelGradient)" stroke="#0a1a2a" stroke-width="1" />
    <line x1="0" y1="15" x2="60" y2="15" stroke="#235689" stroke-width="1" />
    <line x1="0" y1="30" x2="60" y2="30" stroke="#235689" stroke-width="1" />
    <line x1="15" y1="0" x2="15" y2="45" stroke="#235689" stroke-width="1" />
    <line x1="30" y1="0" x2="30" y2="45" stroke="#235689" stroke-width="1" />
    <line x1="45" y1="0" x2="45" y2="45" stroke="#235689" stroke-width="1" />
  </g>
  
  <g transform="translate(520, 310)">
    <rect width="60" height="45" fill="url(#solarPanelGradient)" stroke="#0a1a2a" stroke-width="1" />
    <line x1="0" y1="15" x2="60" y2="15" stroke="#235689" stroke-width="1" />
    <line x1="0" y1="30" x2="60" y2="30" stroke="#235689" stroke-width="1" />
    <line x1="15" y1="0" x2="15" y2="45" stroke="#235689" stroke-width="1" />
    <line x1="30" y1="0" x2="30" y2="45" stroke="#235689" stroke-width="1" />
    <line x1="45" y1="0" x2="45" y2="45" stroke="#235689" stroke-width="1" />
  </g>
  
  <g transform="translate(590, 370)">
    <rect width="60" height="45" fill="url(#solarPanelGradient)" stroke="#0a1a2a" stroke-width="1" opacity="0.8" />
    <line x1="0" y1="15" x2="60" y2="15" stroke="#235689" stroke-width="1" />
    <line x1="0" y1="30" x2="60" y2="30" stroke="#235689" stroke-width="1" />
    <line x1="15" y1="0" x2="15" y2="45" stroke="#235689" stroke-width="1" />
    <line x1="30" y1="0" x2="30" y2="45" stroke="#235689" stroke-width="1" />
    <line x1="45" y1="0" x2="45" y2="45" stroke="#235689" stroke-width="1" />
  </g>
  
  <!-- Manufacturing equipment with professional details -->
  <rect x="440" y="370" width="80" height="15" fill="#777" rx="2" ry="2" />
  <rect x="450" y="365" width="60" height="5" fill="#999" rx="1" ry="1" />
  <circle cx="480" cy="372" r="3" fill="#555" />
  <circle cx="460" cy="372" r="2" fill="#555" />
  <circle cx="500" cy="372" r="2" fill="#555" />
</svg>