<?xml version="1.0" encoding="UTF-8"?>
<svg width="800" height="450" viewBox="0 0 800 450" xmlns="http://www.w3.org/2000/svg">
  <!-- Definitions for gradients and filters -->
  <defs>
    <linearGradient id="skyGradient" x1="0%" y1="0%" x2="0%" y2="100%">
      <stop offset="0%" style="stop-color:#1a73e8;stop-opacity:1" />
      <stop offset="100%" style="stop-color:#87ceeb;stop-opacity:1" />
    </linearGradient>
    <linearGradient id="desertGradient" x1="0%" y1="0%" x2="0%" y2="100%">
      <stop offset="0%" style="stop-color:#e8d8a3;stop-opacity:1" />
      <stop offset="100%" style="stop-color:#d1b978;stop-opacity:1" />
    </linearGradient>
    <linearGradient id="solarPanelGradient" x1="0%" y1="0%" x2="100%" y2="100%">
      <stop offset="0%" style="stop-color:#1a3c5e;stop-opacity:1" />
      <stop offset="50%" style="stop-color:#2d5f8e;stop-opacity:1" />
      <stop offset="100%" style="stop-color:#1a3c5e;stop-opacity:1" />
    </linearGradient>
    <linearGradient id="towerGradient" x1="0%" y1="0%" x2="100%" y2="0%">
      <stop offset="0%" style="stop-color:#d9d9d9;stop-opacity:1" />
      <stop offset="50%" style="stop-color:#f5f5f5;stop-opacity:1" />
      <stop offset="100%" style="stop-color:#d9d9d9;stop-opacity:1" />
    </linearGradient>
    <filter id="shadow" x="-20%" y="-20%" width="140%" height="140%">
      <feGaussianBlur in="SourceAlpha" stdDeviation="3" />
      <feOffset dx="2" dy="4" result="offsetblur" />
      <feComponentTransfer>
        <feFuncA type="linear" slope="0.2" />
      </feComponentTransfer>
      <feMerge>
        <feMergeNode />
        <feMergeNode in="SourceGraphic" />
      </feMerge>
    </filter>
    <radialGradient id="sunGlow" cx="50%" cy="50%" r="50%" fx="50%" fy="50%">
      <stop offset="0%" style="stop-color:#ffff88;stop-opacity:1" />
      <stop offset="80%" style="stop-color:#ffcc00;stop-opacity:1" />
      <stop offset="100%" style="stop-color:#ff9900;stop-opacity:1" />
    </radialGradient>
    <filter id="glow">
      <feGaussianBlur in="SourceGraphic" stdDeviation="8" />
    </filter>
  </defs>

  <!-- Background layers -->
  <rect width="800" height="250" fill="url(#skyGradient)" />
  <rect y="250" width="800" height="200" fill="url(#desertGradient)" />

  <!-- Sun with glow effect -->
  <circle cx="150" cy="120" r="60" fill="#ffff88" filter="url(#glow)" opacity="0.7" />
  <circle cx="150" cy="120" r="45" fill="url(#sunGlow)" />
  
  <!-- Solar tower (central tower for concentrated solar power) -->
  <rect x="230" y="130" width="40" height="200" fill="url(#towerGradient)" filter="url(#shadow)" />
  <rect x="220" y="130" width="60" height="15" fill="#f5f5f5" filter="url(#shadow)" />
  <ellipse cx="250" cy="125" rx="30" ry="10" fill="#f0f0f0" />
  
  <!-- Heliostats (mirrors) arranged in a curved pattern around the tower -->
  <g>
    <!-- First row of heliostats -->
    <rect x="100" y="260" width="40" height="20" fill="#f0f0f0" stroke="#cccccc" stroke-width="1" transform="skewX(-15)" />
    <rect x="150" y="270" width="40" height="20" fill="#f0f0f0" stroke="#cccccc" stroke-width="1" transform="skewX(-10)" />
    <rect x="300" y="270" width="40" height="20" fill="#f0f0f0" stroke="#cccccc" stroke-width="1" transform="skewX(10)" />
    <rect x="350" y="260" width="40" height="20" fill="#f0f0f0" stroke="#cccccc" stroke-width="1" transform="skewX(15)" />
    
    <!-- Second row of heliostats -->
    <rect x="70" y="290" width="40" height="20" fill="#f0f0f0" stroke="#cccccc" stroke-width="1" transform="skewX(-20)" />
    <rect x="130" y="300" width="40" height="20" fill="#f0f0f0" stroke="#cccccc" stroke-width="1" transform="skewX(-15)" />
    <rect x="170" y="310" width="40" height="20" fill="#f0f0f0" stroke="#cccccc" stroke-width="1" transform="skewX(-10)" />
    <rect x="290" y="310" width="40" height="20" fill="#f0f0f0" stroke="#cccccc" stroke-width="1" transform="skewX(10)" />
    <rect x="330" y="300" width="40" height="20" fill="#f0f0f0" stroke="#cccccc" stroke-width="1" transform="skewX(15)" />
    <rect x="390" y="290" width="40" height="20" fill="#f0f0f0" stroke="#cccccc" stroke-width="1" transform="skewX(20)" />
    
    <!-- Third row of heliostats -->
    <rect x="40" y="330" width="40" height="20" fill="#f0f0f0" stroke="#cccccc" stroke-width="1" transform="skewX(-25)" />
    <rect x="100" y="340" width="40" height="20" fill="#f0f0f0" stroke="#cccccc" stroke-width="1" transform="skewX(-20)" />
    <rect x="160" y="350" width="40" height="20" fill="#f0f0f0" stroke="#cccccc" stroke-width="1" transform="skewX(-15)" />
    <rect x="220" y="360" width="40" height="20" fill="#f0f0f0" stroke="#cccccc" stroke-width="1" transform="skewX(-5)" />
    <rect x="280" y="360" width="40" height="20" fill="#f0f0f0" stroke="#cccccc" stroke-width="1" transform="skewX(5)" />
    <rect x="340" y="350" width="40" height="20" fill="#f0f0f0" stroke="#cccccc" stroke-width="1" transform="skewX(15)" />
    <rect x="400" y="340" width="40" height="20" fill="#f0f0f0" stroke="#cccccc" stroke-width="1" transform="skewX(20)" />
    <rect x="460" y="330" width="40" height="20" fill="#f0f0f0" stroke="#cccccc" stroke-width="1" transform="skewX(25)" />
  </g>
  
  <!-- Photovoltaic solar farm (traditional solar panels) -->
  <g transform="translate(550, 240)">
    <!-- First row of solar panels -->
    <g>
      <rect width="70" height="50" fill="url(#solarPanelGradient)" stroke="#0a1a2a" stroke-width="1" rx="2" ry="2" />
      <line x1="0" y1="16.6" x2="70" y2="16.6" stroke="#235689" stroke-width="1" />
      <line x1="0" y1="33.3" x2="70" y2="33.3" stroke="#235689" stroke-width="1" />
      <line x1="17.5" y1="0" x2="17.5" y2="50" stroke="#235689" stroke-width="1" />
      <line x1="35" y1="0" x2="35" y2="50" stroke="#235689" stroke-width="1" />
      <line x1="52.5" y1="0" x2="52.5" y2="50" stroke="#235689" stroke-width="1" />
    </g>
    
    <!-- Second row of solar panels -->
    <g transform="translate(80, 0)">
      <rect width="70" height="50" fill="url(#solarPanelGradient)" stroke="#0a1a2a" stroke-width="1" rx="2" ry="2" />
      <line x1="0" y1="16.6" x2="70" y2="16.6" stroke="#235689" stroke-width="1" />
      <line x1="0" y1="33.3" x2="70" y2="33.3" stroke="#235689" stroke-width="1" />
      <line x1="17.5" y1="0" x2="17.5" y2="50" stroke="#235689" stroke-width="1" />
      <line x1="35" y1="0" x2="35" y2="50" stroke="#235689" stroke-width="1" />
      <line x1="52.5" y1="0" x2="52.5" y2="50" stroke="#235689" stroke-width="1" />
    </g>
    
    <!-- Third row of solar panels -->
    <g transform="translate(0, 60)">
      <rect width="70" height="50" fill="url(#solarPanelGradient)" stroke="#0a1a2a" stroke-width="1" rx="2" ry="2" />
      <line x1="0" y1="16.6" x2="70" y2="16.6" stroke="#235689" stroke-width="1" />
      <line x1="0" y1="33.3" x2="70" y2="33.3" stroke="#235689" stroke-width="1" />
      <line x1="17.5" y1="0" x2="17.5" y2="50" stroke="#235689" stroke-width="1" />
      <line x1="35" y1="0" x2="35" y2="50" stroke="#235689" stroke-width="1" />
      <line x1="52.5" y1="0" x2="52.5" y2="50" stroke="#235689" stroke-width="1" />
    </g>
    
    <!-- Fourth row of solar panels -->
    <g transform="translate(80, 60)">
      <rect width="70" height="50" fill="url(#solarPanelGradient)" stroke="#0a1a2a" stroke-width="1" rx="2" ry="2" />
      <line x1="0" y1="16.6" x2="70" y2="16.6" stroke="#235689" stroke-width="1" />
      <line x1="0" y1="33.3" x2="70" y2="33.3" stroke="#235689" stroke-width="1" />
      <line x1="17.5" y1="0" x2="17.5" y2="50" stroke="#235689" stroke-width="1" />
      <line x1="35" y1="0" x2="35" y2="50" stroke="#235689" stroke-width="1" />
      <line x1="52.5" y1="0" x2="52.5" y2="50" stroke="#235689" stroke-width="1" />
    </g>
    
    <!-- Fifth row of solar panels -->
    <g transform="translate(0, 120)">
      <rect width="70" height="50" fill="url(#solarPanelGradient)" stroke="#0a1a2a" stroke-width="1" rx="2" ry="2" />
      <line x1="0" y1="16.6" x2="70" y2="16.6" stroke="#235689" stroke-width="1" />
      <line x1="0" y1="33.3" x2="70" y2="33.3" stroke="#235689" stroke-width="1" />
      <line x1="17.5" y1="0" x2="17.5" y2="50" stroke="#235689" stroke-width="1" />
      <line x1="35" y1="0" x2="35" y2="50" stroke="#235689" stroke-width="1" />
      <line x1="52.5" y1="0" x2="52.5" y2="50" stroke="#235689" stroke-width="1" />
    </g>
    
    <!-- Sixth row of solar panels -->
    <g transform="translate(80, 120)">
      <rect width="70" height="50" fill="url(#solarPanelGradient)" stroke="#0a1a2a" stroke-width="1" rx="2" ry="2" />
      <line x1="0" y1="16.6" x2="70" y2="16.6" stroke="#235689" stroke-width="1" />
      <line x1="0" y1="33.3" x2="70" y2="33.3" stroke="#235689" stroke-width="1" />
      <line x1="17.5" y1="0" x2="17.5" y2="50" stroke="#235689" stroke-width="1" />
      <line x1="35" y1="0" x2="35" y2="50" stroke="#235689" stroke-width="1" />
      <line x1="52.5" y1="0" x2="52.5" y2="50" stroke="#235689" stroke-width="1" />
    </g>
  </g>
  
  <!-- Control building -->
  <rect x="480" y="300" width="50" height="30" fill="#f5f5f5" stroke="#cccccc" stroke-width="1" filter="url(#shadow)" />
  <rect x="485" y="310" width="10" height="10" fill="#a3c2e3" />
  <rect x="505" y="310" width="10" height="10" fill="#a3c2e3" />
  <rect x="495" y="325" width="10" height="5" fill="#888888" />
</svg>