<?xml version="1.0" encoding="UTF-8"?>
<svg width="800" height="450" viewBox="0 0 800 450" xmlns="http://www.w3.org/2000/svg">
  <!-- Definitions for gradients and filters -->
  <defs>
    <linearGradient id="skyGradient" x1="0%" y1="0%" x2="0%" y2="100%">
      <stop offset="0%" style="stop-color:#4a90e2;stop-opacity:1" />
      <stop offset="100%" style="stop-color:#87ceeb;stop-opacity:1" />
    </linearGradient>
    <linearGradient id="groundGradient" x1="0%" y1="0%" x2="0%" y2="100%">
      <stop offset="0%" style="stop-color:#689f38;stop-opacity:1" />
      <stop offset="100%" style="stop-color:#558b2f;stop-opacity:1" />
    </linearGradient>
    <linearGradient id="buildingGradient1" x1="0%" y1="0%" x2="100%" y2="0%">
      <stop offset="0%" style="stop-color:#e0e0e0;stop-opacity:1" />
      <stop offset="50%" style="stop-color:#f5f5f5;stop-opacity:1" />
      <stop offset="100%" style="stop-color:#e0e0e0;stop-opacity:1" />
    </linearGradient>
    <linearGradient id="buildingGradient2" x1="0%" y1="0%" x2="100%" y2="0%">
      <stop offset="0%" style="stop-color:#b0bec5;stop-opacity:1" />
      <stop offset="50%" style="stop-color:#cfd8dc;stop-opacity:1" />
      <stop offset="100%" style="stop-color:#b0bec5;stop-opacity:1" />
    </linearGradient>
    <linearGradient id="trainGradient" x1="0%" y1="0%" x2="100%" y2="0%">
      <stop offset="0%" style="stop-color:#1976d2;stop-opacity:1" />
      <stop offset="50%" style="stop-color:#2196f3;stop-opacity:1" />
      <stop offset="100%" style="stop-color:#1976d2;stop-opacity:1" />
    </linearGradient>
    <linearGradient id="stationGradient" x1="0%" y1="0%" x2="100%" y2="0%">
      <stop offset="0%" style="stop-color:#455a64;stop-opacity:1" />
      <stop offset="50%" style="stop-color:#607d8b;stop-opacity:1" />
      <stop offset="100%" style="stop-color:#455a64;stop-opacity:1" />
    </linearGradient>
    <filter id="shadow" x="-20%" y="-20%" width="140%" height="140%">
      <feGaussianBlur in="SourceAlpha" stdDeviation="3" />
      <feOffset dx="2" dy="4" result="offsetblur" />
      <feComponentTransfer>
        <feFuncA type="linear" slope="0.3" />
      </feComponentTransfer>
      <feMerge>
        <feMergeNode />
        <feMergeNode in="SourceGraphic" />
      </feMerge>
    </filter>
  </defs>

  <!-- Background layers -->
  <rect width="800" height="180" fill="url(#skyGradient)" />
  <rect y="180" width="800" height="270" fill="url(#groundGradient)" />

  <!-- City skyline -->
  <!-- Building 1 -->
  <rect x="30" y="50" width="70" height="180" fill="url(#buildingGradient1)" filter="url(#shadow)" />
  <rect x="35" y="60" width="10" height="15" fill="#a3c2e3" />
  <rect x="55" y="60" width="10" height="15" fill="#a3c2e3" />
  <rect x="75" y="60" width="10" height="15" fill="#a3c2e3" />
  <rect x="35" y="85" width="10" height="15" fill="#a3c2e3" />
  <rect x="55" y="85" width="10" height="15" fill="#a3c2e3" />
  <rect x="75" y="85" width="10" height="15" fill="#a3c2e3" />
  <rect x="35" y="110" width="10" height="15" fill="#a3c2e3" />
  <rect x="55" y="110" width="10" height="15" fill="#a3c2e3" />
  <rect x="75" y="110" width="10" height="15" fill="#a3c2e3" />
  <rect x="35" y="135" width="10" height="15" fill="#a3c2e3" />
  <rect x="55" y="135" width="10" height="15" fill="#a3c2e3" />
  <rect x="75" y="135" width="10" height="15" fill="#a3c2e3" />
  <rect x="35" y="160" width="10" height="15" fill="#a3c2e3" />
  <rect x="55" y="160" width="10" height="15" fill="#a3c2e3" />
  <rect x="75" y="160" width="10" height="15" fill="#a3c2e3" />
  <rect x="35" y="185" width="10" height="15" fill="#a3c2e3" />
  <rect x="55" y="185" width="10" height="15" fill="#a3c2e3" />
  <rect x="75" y="185" width="10" height="15" fill="#a3c2e3" />
  <rect x="35" y="210" width="10" height="15" fill="#a3c2e3" />
  <rect x="55" y="210" width="10" height="15" fill="#a3c2e3" />
  <rect x="75" y="210" width="10" height="15" fill="#a3c2e3" />
  
  <!-- Building 2 -->
  <rect x="120" y="100" width="90" height="130" fill="url(#buildingGradient2)" filter="url(#shadow)" />
  <rect x="130" y="110" width="15" height="20" fill="#a3c2e3" />
  <rect x="155" y="110" width="15" height="20" fill="#a3c2e3" />
  <rect x="180" y="110" width="15" height="20" fill="#a3c2e3" />
  <rect x="130" y="140" width="15" height="20" fill="#a3c2e3" />
  <rect x="155" y="140" width="15" height="20" fill="#a3c2e3" />
  <rect x="180" y="140" width="15" height="20" fill="#a3c2e3" />
  <rect x="130" y="170" width="15" height="20" fill="#a3c2e3" />
  <rect x="155" y="170" width="15" height="20" fill="#a3c2e3" />
  <rect x="180" y="170" width="15" height="20" fill="#a3c2e3" />
  <rect x="130" y="200" width="15" height="20" fill="#a3c2e3" />
  <rect x="155" y="200" width="15" height="20" fill="#a3c2e3" />
  <rect x="180" y="200" width="15" height="20" fill="#a3c2e3" />
  
  <!-- Building 3 (high-rise) -->
  <rect x="230" y="30" width="60" height="200" fill="url(#buildingGradient1)" filter="url(#shadow)" />
  <rect x="240" y="40" width="10" height="15" fill="#a3c2e3" />
  <rect x="260" y="40" width="10" height="15" fill="#a3c2e3" />
  <rect x="240" y="65" width="10" height="15" fill="#a3c2e3" />
  <rect x="260" y="65" width="10" height="15" fill="#a3c2e3" />
  <rect x="240" y="90" width="10" height="15" fill="#a3c2e3" />
  <rect x="260" y="90" width="10" height="15" fill="#a3c2e3" />
  <rect x="240" y="115" width="10" height="15" fill="#a3c2e3" />
  <rect x="260" y="115" width="10" height="15" fill="#a3c2e3" />
  <rect x="240" y="140" width="10" height="15" fill="#a3c2e3" />
  <rect x="260" y="140" width="10" height="15" fill="#a3c2e3" />
  <rect x="240" y="165" width="10" height="15" fill="#a3c2e3" />
  <rect x="260" y="165" width="10" height="15" fill="#a3c2e3" />
  <rect x="240" y="190" width="10" height="15" fill="#a3c2e3" />
  <rect x="260" y="190" width="10" height="15" fill="#a3c2e3" />
  <rect x="240" y="215" width="10" height="15" fill="#a3c2e3" />
  <rect x="260" y="215" width="10" height="15" fill="#a3c2e3" />
  
  <!-- Building 4 -->
  <rect x="310" y="80" width="80" height="150" fill="url(#buildingGradient2)" filter="url(#shadow)" />
  <rect x="320" y="90" width="12" height="18" fill="#a3c2e3" />
  <rect x="342" y="90" width="12" height="18" fill="#a3c2e3" />
  <rect x="364" y="90" width="12" height="18" fill="#a3c2e3" />
  <rect x="320" y="118" width="12" height="18" fill="#a3c2e3" />
  <rect x="342" y="118" width="12" height="18" fill="#a3c2e3" />
  <rect x="364" y="118" width="12" height="18" fill="#a3c2e3" />
  <rect x="320" y="146" width="12" height="18" fill="#a3c2e3" />
  <rect x="342" y="146" width="12" height="18" fill="#a3c2e3" />
  <rect x="364" y="146" width="12" height="18" fill="#a3c2e3" />
  <rect x="320" y="174" width="12" height="18" fill="#a3c2e3" />
  <rect x="342" y="174" width="12" height="18" fill="#a3c2e3" />
  <rect x="364" y="174" width="12" height="18" fill="#a3c2e3" />
  <rect x="320" y="202" width="12" height="18" fill="#a3c2e3" />
  <rect x="342" y="202" width="12" height="18" fill="#a3c2e3" />
  <rect x="364" y="202" width="12" height="18" fill="#a3c2e3" />
  
  <!-- Building 5 -->
  <rect x="410" y="100" width="100" height="130" fill="url(#buildingGradient1)" filter="url(#shadow)" />
  <rect x="420" y="110" width="15" height="20" fill="#a3c2e3" />
  <rect x="445" y="110" width="15" height="20" fill="#a3c2e3" />
  <rect x="470" y="110" width="15" height="20" fill="#a3c2e3" />
  <rect x="495" y="110" width="15" height="20" fill="#a3c2e3" />
  <rect x="420" y="140" width="15" height="20" fill="#a3c2e3" />
  <rect x="445" y="140" width="15" height="20" fill="#a3c2e3" />
  <rect x="470" y="140" width="15" height="20" fill="#a3c2e3" />
  <rect x="495" y="140" width="15" height="20" fill="#a3c2e3" />
  <rect x="420" y="170" width="15" height="20" fill="#a3c2e3" />
  <rect x="445" y="170" width="15" height="20" fill="#a3c2e3" />
  <rect x="470" y="170" width="15" height="20" fill="#a3c2e3" />
  <rect x="495" y="170" width="15" height="20" fill="#a3c2e3" />
  <rect x="420" y="200" width="15" height="20" fill="#a3c2e3" />
  <rect x="445" y="200" width="15" height="20" fill="#a3c2e3" />
  <rect x="470" y="200" width="15" height="20" fill="#a3c2e3" />
  <rect x="495" y="200" width="15" height="20" fill="#a3c2e3" />
  
  <!-- Building 6 -->
  <rect x="530" y="70" width="70" height="160" fill="url(#buildingGradient2)" filter="url(#shadow)" />
  <rect x="540" y="80" width="10" height="15" fill="#a3c2e3" />
  <rect x="560" y="80" width="10" height="15" fill="#a3c2e3" />
  <rect x="580" y="80" width="10" height="15" fill="#a3c2e3" />
  <rect x="540" y="105" width="10" height="15" fill="#a3c2e3" />
  <rect x="560" y="105" width="10" height="15" fill="#a3c2e3" />
  <rect x="580" y="105" width="10" height="15" fill="#a3c2e3" />
  <rect x="540" y="130" width="10" height="15" fill="#a3c2e3" />
  <rect x="560" y="130" width="10" height="15" fill="#a3c2e3" />
  <rect x="580" y="130" width="10" height="15" fill="#a3c2e3" />
  <rect x="540" y="155" width="10" height="15" fill="#a3c2e3" />
  <rect x="560" y="155" width="10" height="15" fill="#a3c2e3" />
  <rect x="580" y="155" width="10" height="15" fill="#a3c2e3" />
  <rect x="540" y="180" width="10" height="15" fill="#a3c2e3" />
  <rect x="560" y="180" width="10" height="15" fill="#a3c2e3" />
  <rect x="580" y="180" width="10" height="15" fill="#a3c2e3" />
  <rect x="540" y="205" width="10" height="15" fill="#a3c2e3" />
  <rect x="560" y="205" width="10" height="15" fill="#a3c2e3" />
  <rect x="580" y="205" width="10" height="15" fill="#a3c2e3" />
  
  <!-- Building 7 -->
  <rect x="620" y="90" width="90" height="140" fill="url(#buildingGradient1)" filter="url(#shadow)" />
  <rect x="630" y="100" width="15" height="20" fill="#a3c2e3" />
  <rect x="655" y="100" width="15" height="20" fill="#a3c2e3" />
  <rect x="680" y="100" width="15" height="20" fill="#a3c2e3" />
  <rect x="630" y="130" width="15" height="20" fill="#a3c2e3" />
  <rect x="655" y="130" width="15" height="20" fill="#a3c2e3" />
  <rect x="680" y="130" width="15" height="20" fill="#a3c2e3" />
  <rect x="630" y="160" width="15" height="20" fill="#a3c2e3" />
  <rect x="655" y="160" width="15" height="20" fill="#a3c2e3" />
  <rect x="680" y="160" width="15" height="20" fill="#a3c2e3" />
  <rect x="630" y="190" width="15" height="20" fill="#a3c2e3" />
  <rect x="655" y="190" width="15" height="20" fill="#a3c2e3" />
  <rect x="680" y="190" width="15" height="20" fill="#a3c2e3" />
  
  <!-- Building 8 -->
  <rect x="730" y="60" width="60" height="170" fill="url(#buildingGradient2)" filter="url(#shadow)" />
  <rect x="740" y="70" width="10" height="15" fill="#a3c2e3" />
  <rect x="760" y="70" width="10" height="15" fill="#a3c2e3" />
  <rect x="740" y="95" width="10" height="15" fill="#a3c2e3" />
  <rect x="760" y="95" width="10" height="15" fill="#a3c2e3" />
  <rect x="740" y="120" width="10" height="15" fill="#a3c2e3" />
  <rect x="760" y="120" width="10" height="15" fill="#a3c2e3" />
  <rect x="740" y="145" width="10" height="15" fill="#a3c2e3" />
  <rect x="760" y="145" width="10" height="15" fill="#a3c2e3" />
  <rect x="740" y="170" width="10" height="15" fill="#a3c2e3" />
  <rect x="760" y="170" width="10" height="15" fill="#a3c2e3" />
  <rect x="740" y="195" width="10" height="15" fill="#a3c2e3" />
  <rect x="760" y="195" width="10" height="15" fill="#a3c2e3" />
  
  <!-- Light Rail Track -->
  <rect x="0" y="260" width="800" height="5" fill="#78909c" />
  <rect x="0" y="270" width="800" height="5" fill="#78909c" />
  
  <!-- Track ties -->
  <rect x="20" y="260" width="5" height="15" fill="#5d4037" />
  <rect x="60" y="260" width="5" height="15" fill="#5d4037" />
  <rect x="100" y="260" width="5" height="15" fill="#5d4037" />
  <rect x="140" y="260" width="5" height="15" fill="#5d4037" />
  <rect x="180" y="260" width="5" height="15" fill="#5d4037" />
  <rect x="220" y="260" width="5" height="15" fill="#5d4037" />
  <rect x="260" y="260" width="5" height="15" fill="#5d4037" />
  <rect x="300" y="260" width="5" height="15" fill="#5d4037" />
  <rect x="340" y="260" width="5" height="15" fill="#5d4037" />
  <rect x="380" y="260" width="5" height="15" fill="#5d4037" />
  <rect x="420" y="260" width="5" height="15" fill="#5d4037" />
  <rect x="460" y="260" width="5" height="15" fill="#5d4037" />
  <rect x="500" y="260" width="5" height="15" fill="#5d4037" />
  <rect x="540" y="260" width="5" height="15" fill="#5d4037" />
  <rect x="580" y="260" width="5" height="15" fill="#5d4037" />
  <rect x="620" y="260" width="5" height="15" fill="#5d4037" />
  <rect x="660" y="260" width="5" height="15" fill="#5d4037" />
  <rect x="700" y="260" width="5" height="15" fill="#5d4037" />
  <rect x="740" y="260" width="5" height="15" fill="#5d4037" />
  <rect x="780" y="260" width="5" height="15" fill="#5d4037" />
  
  <!-- Main train station -->
  <rect x="300" y="290" width="200" height="80" rx="5" ry="5" fill="url(#stationGradient)" filter="url(#shadow)" />
  <rect x="300" y="290" width="200" height="15" fill="#455a64" />
  <rect x="350" y="290" width="100" height="20" rx="10" ry="10" fill="#78909c" />
  
  <!-- Station windows -->
  <rect x="320" y="315" width="20" height="25" rx="2" ry="2" fill="#bbdefb" stroke="#90caf9" stroke-width="1" />
  <rect x="350" y="315" width="20" height="25" rx="2" ry="2" fill="#bbdefb" stroke="#90caf9" stroke-width="1" />
  <rect x="380" y="315" width="20" height="25" rx="2" ry="2" fill="#bbdefb" stroke="#90caf9" stroke-width="1" />
  <rect x="410" y="315" width="20" height="25" rx="2" ry="2" fill="#bbdefb" stroke="#90caf9" stroke-width="1" />
  <rect x="440" y="315" width="20" height="25" rx="2" ry="2" fill="#bbdefb" stroke="#90caf9" stroke-width="1" />
  <rect x="470" y="315" width="20" height="25" rx="2" ry="2" fill="#bbdefb" stroke="#90caf9" stroke-width="1" />
  
  <!-- Station doors -->
  <rect x="350" y="350" width="30" height="20" fill="#455a64" stroke="#37474f" stroke-width="1" />
  <line x1="365" y1="350" x2="365" y2="370" stroke="#37474f" stroke-width="1" />
  <rect x="420" y="350" width="30" height="20" fill="#455a64" stroke="#37474f" stroke-width="1" />
  <line x1="435" y1="350" x2="435" y2="370" stroke="#37474f" stroke-width="1" />
  
  <!-- Light rail train -->
  <g transform="translate(550, 249)">
    <!-- First car -->
    <rect x="0" y="0" width="100" height="25" rx="5" ry="5" fill="url(#trainGradient)" filter="url(#shadow)" />
    <rect x="10" y="-5" width="80" height="5" rx="2" ry="2" fill="#0d47a1" />
    <rect x="10" y="5" width="15" height="15" rx="2" ry="2" fill="#e3f2fd" stroke="#bbdefb" stroke-width="1" />
    <rect x="30" y="5" width="15" height="15" rx="2" ry="2" fill="#e3f2fd" stroke="#bbdefb" stroke-width="1" />
    <rect x="55" y="5" width="15" height="15" rx="2" ry="2" fill="#e3f2fd" stroke="#bbdefb" stroke-width="1" />
    <rect x="75" y="5" width="15" height="15" rx="2" ry="2" fill="#e3f2fd" stroke="#bbdefb" stroke-width="1" />
    <circle cx="15" cy="25" r="4" fill="#212121" />
    <circle cx="35" cy="25" r="4" fill="#212121" />
    <circle cx="65" cy="25" r="4" fill="#212121" />
    <circle cx="85" cy="25" r="4" fill="#212121" />
    
    <!-- Connector -->
    <rect x="100" y="10" width="10" height="5" fill="#0d47a1" />
    
    <!-- Second car -->
    <rect x="110" y="0" width="100" height="25" rx="5" ry="5" fill="url(#trainGradient)" filter="url(#shadow)" />
    <rect x="120" y="-5" width="80" height="5" rx="2" ry="2" fill="#0d47a1" />
    <rect x="120" y="5" width="15" height="15" rx="2" ry="2" fill="#e3f2fd" stroke="#bbdefb" stroke-width="1" />
    <rect x="140" y="5" width="15" height="15" rx="2" ry="2" fill="#e3f2fd" stroke="#bbdefb" stroke-width="1" />
    <rect x="165" y="5" width="15" height="15" rx="2" ry="2" fill="#e3f2fd" stroke="#bbdefb" stroke-width="1" />
    <rect x="185" y="5" width="15" height="15" rx="2" ry="2" fill="#e3f2fd" stroke="#bbdefb" stroke-width="1" />
    <circle cx="125" cy="25" r="4" fill="#212121" />
    <circle cx="145" cy="25" r="4" fill="#212121" />
    <circle cx="175" cy="25" r="4" fill="#212121" />
    <circle cx="195" cy="25" r="4" fill="#212121" />
  </g>
  
  <!-- Secondary station -->
  <rect x="80" y="290" width="120" height="50" rx="3" ry="3" fill="url(#stationGradient)" filter="url(#shadow)" />
  <rect x="80" y="290" width="120" height="10" fill="#455a64" />
  <rect x="110" y="290" width="60" height="15" rx="7" ry="7" fill="#78909c" />
  
  <!-- Secondary station windows and doors -->
  <rect x="90" y="310" width="15" height="20" rx="2" ry="2" fill="#bbdefb" stroke="#90caf9" stroke-width="1" />
  <rect x="115" y="310" width="15" height="20" rx="2" ry="2" fill="#bbdefb" stroke="#90caf9" stroke-width="1" />
  <rect x="140" y="310" width="15" height="20" rx="2" ry="2" fill="#bbdefb" stroke="#90caf9" stroke-width="1" />
  <rect x="165" y="310" width="15" height="20" rx="2" ry="2" fill="#bbdefb" stroke="#90caf9" stroke-width="1" />
  <rect x="175" y="325" width="15" height="15" fill="#455a64" stroke="#37474f" stroke-width="1" />
  <line x1="182.5" y1="325" x2="182.5" y2="340" stroke="#37474f" stroke-width="1" />
  
  <!-- Passengers -->
  <g transform="translate(390, 370)">
    <circle cx="0" cy="0" r="5" fill="#795548" />
    <rect x="-2.5" y="5" width="5" height="10" fill="#1565c0" />
    <line x1="-2.5" y1="10" x2="-6" y2="15" stroke="#1565c0" stroke-width="1.5" />
    <line x1="2.5" y1="10" x2="6" y2="15" stroke="#1565c0" stroke-width="1.5" />
    <line x1="0" y1="15" x2="0" y2="25" stroke="#795548" stroke-width="1.5" />
    <line x1="0" y1="25" x2="-4" y2="30" stroke="#795548" stroke-width="1.5" />
    <line x1="0" y1="25" x2="4" y2="30" stroke="#795548" stroke-width="1.5" />
  </g>
  
  <g transform="translate(420, 380)">
    <circle cx="0" cy="0" r="5" fill="#795548" />
    <rect x="-2.5" y="5" width="5" height="10" fill="#f44336" />
    <line x1="-2.5" y1="10" x2="-6" y2="15" stroke="#f44336" stroke-width="1.5" />
    <line x1="2.5" y1="10" x2="6" y2="15" stroke="#f44336" stroke-width="1.5" />
    <line x1="0" y1="15" x2="0" y2="25" stroke="#795548" stroke-width="1.5" />
    <line x1="0" y1="25" x2="-4" y2="30" stroke="#795548" stroke-width="1.5" />
    <line x1="0" y1="25" x2="4" y2="30" stroke="#795548" stroke-width="1.5" />
  </g>
  
  <g transform="translate(320, 390)">
    <circle cx="0" cy="0" r="5" fill="#795548" />
    <rect x="-2.5" y="5" width="5" height="10" fill="#4caf50" />
    <line x1="-2.5" y1="10" x2="-6" y2="15" stroke="#4caf50" stroke-width="1.5" />
    <line x1="2.5" y1="10" x2="6" y2="15" stroke="#4caf50" stroke-width="1.5" />
    <line x1="0" y1="15" x2="0" y2="25" stroke="#795548" stroke-width="1.5" />
    <line x1="0" y1="25" x2="-4" y2="30" stroke="#795548" stroke-width="1.5" />
    <line x1="0" y1="25" x2="4" y2="30" stroke="#795548" stroke-width="1.5" />
  </g>
  
  <g transform="translate(460, 385)">
    <circle cx="0" cy="0" r="5" fill="#795548" />
    <rect x="-2.5" y="5" width="5" height="10" fill="#ffc107" />
    <line x1="-2.5" y1="10" x2="-6" y2="15" stroke="#ffc107" stroke-width="1.5" />
    <line x1="2.5" y1="10" x2="6" y2="15" stroke="#ffc107" stroke-width="1.5" />
    <line x1="0" y1="15" x2="0" y2="25" stroke="#795548" stroke-width="1.5" />
    <line x1="0" y1="25" x2="-4" y2="30" stroke="#795548" stroke-width="1.5" />
    <line x1="0" y1="25" x2="4" y2="30" stroke="#795548" stroke-width="1.5" />
  </g>
</svg>