<?xml version="1.0" encoding="UTF-8"?>
<svg width="800" height="450" viewBox="0 0 800 450" xmlns="http://www.w3.org/2000/svg">
  <!-- Definitions for gradients and filters -->
  <defs>
    <linearGradient id="skyGradient" x1="0%" y1="0%" x2="0%" y2="100%">
      <stop offset="0%" style="stop-color:#4a90e2;stop-opacity:1" />
      <stop offset="100%" style="stop-color:#87ceeb;stop-opacity:1" />
    </linearGradient>
    <linearGradient id="riverGradient" x1="0%" y1="0%" x2="0%" y2="100%">
      <stop offset="0%" style="stop-color:#1565c0;stop-opacity:0.8" />
      <stop offset="100%" style="stop-color:#0d47a1;stop-opacity:0.9" />
    </linearGradient>
    <linearGradient id="groundGradient" x1="0%" y1="0%" x2="0%" y2="100%">
      <stop offset="0%" style="stop-color:#8d6e63;stop-opacity:1" />
      <stop offset="100%" style="stop-color:#6d4c41;stop-opacity:1" />
    </linearGradient>
    <linearGradient id="hillsGradient" x1="0%" y1="0%" x2="0%" y2="100%">
      <stop offset="0%" style="stop-color:#689f38;stop-opacity:1" />
      <stop offset="100%" style="stop-color:#558b2f;stop-opacity:1" />
    </linearGradient>
    <linearGradient id="tentGradient" x1="0%" y1="0%" x2="100%" y2="0%">
      <stop offset="0%" style="stop-color:#1e88e5;stop-opacity:1" />
      <stop offset="100%" style="stop-color:#1565c0;stop-opacity:1" />
    </linearGradient>
    <linearGradient id="equipmentGradient" x1="0%" y1="0%" x2="100%" y2="0%">
      <stop offset="0%" style="stop-color:#78909c;stop-opacity:1" />
      <stop offset="100%" style="stop-color:#546e7a;stop-opacity:1" />
    </linearGradient>
    <filter id="shadow" x="-20%" y="-20%" width="140%" height="140%">
      <feGaussianBlur in="SourceAlpha" stdDeviation="3" />
      <feOffset dx="2" dy="4" result="offsetblur" />
      <feComponentTransfer>
        <feFuncA type="linear" slope="0.3" />
      </feComponentTransfer>
      <feMerge>
        <feMergeNode />
        <feMergeNode in="SourceGraphic" />
      </feMerge>
    </filter>
    <filter id="waterRipple" x="-20%" y="-20%" width="140%" height="140%">
      <feTurbulence type="fractalNoise" baseFrequency="0.01" numOctaves="2" result="turbulence" />
      <feDisplacementMap in="SourceGraphic" in2="turbulence" scale="5" xChannelSelector="R" yChannelSelector="G" />
    </filter>
  </defs>

  <!-- Background layers -->
  <rect width="800" height="220" fill="url(#skyGradient)" />
  <rect y="220" width="800" height="230" fill="url(#groundGradient)" />

  <!-- Hills in background -->
  <path d="M0,220 Q100,170 200,220 T400,220 T600,220 T800,220 V270 H0 Z" fill="url(#hillsGradient)" />
  
  <!-- River -->
  <path d="M0,280 C100,260 200,290 300,270 C400,250 500,290 600,270 C700,250 800,280 800,280 V450 H0 Z" fill="url(#riverGradient)" filter="url(#waterRipple)" />
  
  <!-- Golden sparkles in river -->
  <circle cx="150" cy="320" r="2" fill="#FFD700" opacity="0.8" />
  <circle cx="180" cy="350" r="1.5" fill="#FFD700" opacity="0.7" />
  <circle cx="220" cy="330" r="2" fill="#FFD700" opacity="0.9" />
  <circle cx="250" cy="360" r="1.5" fill="#FFD700" opacity="0.8" />
  <circle cx="300" cy="340" r="2" fill="#FFD700" opacity="0.7" />
  <circle cx="350" cy="370" r="1.5" fill="#FFD700" opacity="0.9" />
  <circle cx="400" cy="330" r="2" fill="#FFD700" opacity="0.8" />
  <circle cx="450" cy="350" r="1.5" fill="#FFD700" opacity="0.7" />
  <circle cx="500" cy="340" r="2" fill="#FFD700" opacity="0.9" />
  <circle cx="550" cy="360" r="1.5" fill="#FFD700" opacity="0.8" />
  <circle cx="600" cy="330" r="2" fill="#FFD700" opacity="0.7" />
  <circle cx="650" cy="350" r="1.5" fill="#FFD700" opacity="0.9" />
  
  <!-- Mining camp -->
  <!-- Main processing tent -->
  <path d="M100,220 L180,150 L260,220 Z" fill="url(#tentGradient)" filter="url(#shadow)" />
  <rect x="120" y="190" width="120" height="30" fill="url(#tentGradient)" />
  <line x1="180" y1="150" x2="180" y2="220" stroke="#0d47a1" stroke-width="2" />
  <rect x="150" y="190" width="20" height="30" fill="#0d47a1" />
  
  <!-- Secondary tent -->
  <path d="M300,230 L350,180 L400,230 Z" fill="#1976d2" filter="url(#shadow)" />
  <rect x="310" y="210" width="80" height="20" fill="#1976d2" />
  <line x1="350" y1="180" x2="350" y2="230" stroke="#0d47a1" stroke-width="2" />
  
  <!-- Water sluice equipment -->
  <rect x="450" y="240" width="100" height="40" rx="5" ry="5" fill="url(#equipmentGradient)" filter="url(#shadow)" />
  <rect x="460" y="230" width="80" height="10" fill="#455a64" />
  <rect x="470" y="240" width="10" height="40" fill="#455a64" />
  <rect x="490" y="240" width="10" height="40" fill="#455a64" />
  <rect x="510" y="240" width="10" height="40" fill="#455a64" />
  <rect x="530" y="240" width="10" height="40" fill="#455a64" />
  
  <!-- Gold panning area -->
  <ellipse cx="200" cy="300" rx="50" ry="10" fill="#8d6e63" filter="url(#shadow)" />
  <ellipse cx="200" cy="295" rx="40" ry="8" fill="#6d4c41" />
  <ellipse cx="200" cy="295" rx="30" ry="6" fill="#5d4037" />
  <ellipse cx="200" cy="295" rx="20" ry="4" fill="#4e342e" />
  <ellipse cx="200" cy="295" rx="10" ry="2" fill="#3e2723" />
  
  <!-- Gold panning tools -->
  <ellipse cx="260" cy="280" rx="15" ry="5" fill="#78909c" filter="url(#shadow)" />
  <path d="M250,280 V265 L270,265 V280 Z" fill="#546e7a" filter="url(#shadow)" />
  
  <!-- Worker panning for gold -->
  <g transform="translate(200, 260)">
    <circle cx="0" cy="0" r="7" fill="#795548" />
    <rect x="-3" y="7" width="6" height="10" fill="#1565c0" />
    <line x1="-3" y1="12" x2="-8" y2="17" stroke="#1565c0" stroke-width="2" />
    <line x1="3" y1="12" x2="8" y2="17" stroke="#1565c0" stroke-width="2" />
    <line x1="0" y1="17" x2="-5" y2="25" stroke="#795548" stroke-width="2" />
    <line x1="0" y1="17" x2="5" y2="25" stroke="#795548" stroke-width="2" />
  </g>
  
  <!-- Worker carrying equipment -->
  <g transform="translate(350, 250)">
    <circle cx="0" cy="0" r="7" fill="#795548" />
    <rect x="-3" y="7" width="6" height="10" fill="#4caf50" />
    <line x1="-3" y1="12" x2="-8" y2="17" stroke="#4caf50" stroke-width="2" />
    <line x1="3" y1="12" x2="8" y2="17" stroke="#4caf50" stroke-width="2" />
    <line x1="0" y1="17" x2="-5" y2="25" stroke="#795548" stroke-width="2" />
    <line x1="0" y1="17" x2="5" y2="25" stroke="#795548" stroke-width="2" />
    <rect x="-10" y="7" width="20" height="5" fill="#5d4037" />
  </g>
  
  <!-- Worker by equipment -->
  <g transform="translate(500, 220)">
    <circle cx="0" cy="0" r="7" fill="#795548" />
    <rect x="-3" y="7" width="6" height="10" fill="#ff9800" />
    <line x1="-3" y1="12" x2="-8" y2="17" stroke="#ff9800" stroke-width="2" />
    <line x1="3" y1="12" x2="8" y2="17" stroke="#ff9800" stroke-width="2" />
    <line x1="0" y1="17" x2="-5" y2="25" stroke="#795548" stroke-width="2" />
    <line x1="0" y1="17" x2="5" y2="25" stroke="#795548" stroke-width="2" />
  </g>
  
  <!-- Small boats on river -->
  <path d="M600,300 C600,290 620,290 620,300 L625,305 L595,305 Z" fill="#8d6e63" filter="url(#shadow)" />
  <line x1="610" y1="290" x2="610" y2="305" stroke="#6d4c41" stroke-width="1" />
  <rect x="605" y="300" width="10" height="5" fill="#6d4c41" />
  
  <path d="M700,330 C700,320 730,320 730,330 L735,335 L695,335 Z" fill="#8d6e63" filter="url(#shadow)" />
  <line x1="715" y1="320" x2="715" y2="335" stroke="#6d4c41" stroke-width="1" />
  <rect x="710" y="330" width="10" height="5" fill="#6d4c41" />
  
  <!-- Collected gold -->
  <circle cx="120" cy="200" r="5" fill="#FFD700" opacity="0.9" filter="url(#shadow)" />
  <circle cx="130" cy="205" r="3" fill="#FFD700" opacity="0.9" filter="url(#shadow)" />
  <circle cx="125" cy="210" r="4" fill="#FFD700" opacity="0.9" filter="url(#shadow)" />
  
  <!-- Trees on the banks -->
  <g transform="translate(80, 230)">
    <rect x="-3" y="0" width="6" height="15" fill="#5d4037" />
    <circle cx="0" cy="-10" r="15" fill="#388e3c" />
  </g>
  
  <g transform="translate(400, 220)">
    <rect x="-3" y="0" width="6" height="20" fill="#5d4037" />
    <circle cx="0" cy="-10" r="18" fill="#388e3c" />
  </g>
  
  <g transform="translate(650, 250)">
    <rect x="-3" y="0" width="6" height="15" fill="#5d4037" />
    <circle cx="0" cy="-10" r="15" fill="#388e3c" />
  </g>
  
  <g transform="translate(750, 230)">
    <rect x="-4" y="0" width="8" height="25" fill="#5d4037" />
    <circle cx="0" cy="-10" r="20" fill="#388e3c" />
  </g>
</svg>