<?xml version="1.0" encoding="UTF-8"?>
<svg width="800" height="450" viewBox="0 0 800 450" xmlns="http://www.w3.org/2000/svg">
  <!-- Definitions for gradients and filters -->
  <defs>
    <linearGradient id="skyGradient" x1="0%" y1="0%" x2="0%" y2="100%">
      <stop offset="0%" style="stop-color:#4a90e2;stop-opacity:1" />
      <stop offset="100%" style="stop-color:#87ceeb;stop-opacity:1" />
    </linearGradient>
    <linearGradient id="groundGradient" x1="0%" y1="0%" x2="0%" y2="100%">
      <stop offset="0%" style="stop-color:#8d6e63;stop-opacity:1" />
      <stop offset="100%" style="stop-color:#6d4c41;stop-opacity:1" />
    </linearGradient>
    <linearGradient id="mountainGradient" x1="0%" y1="0%" x2="0%" y2="100%">
      <stop offset="0%" style="stop-color:#78909c;stop-opacity:1" />
      <stop offset="100%" style="stop-color:#546e7a;stop-opacity:1" />
    </linearGradient>
    <linearGradient id="mineShaftGradient" x1="0%" y1="0%" x2="100%" y2="0%">
      <stop offset="0%" style="stop-color:#424242;stop-opacity:1" />
      <stop offset="100%" style="stop-color:#212121;stop-opacity:1" />
    </linearGradient>
    <linearGradient id="buildingGradient" x1="0%" y1="0%" x2="100%" y2="0%">
      <stop offset="0%" style="stop-color:#e0e0e0;stop-opacity:1" />
      <stop offset="100%" style="stop-color:#bdbdbd;stop-opacity:1" />
    </linearGradient>
    <linearGradient id="roofGradient" x1="0%" y1="0%" x2="100%" y2="0%">
      <stop offset="0%" style="stop-color:#d32f2f;stop-opacity:1" />
      <stop offset="100%" style="stop-color:#b71c1c;stop-opacity:1" />
    </linearGradient>
    <filter id="shadow" x="-20%" y="-20%" width="140%" height="140%">
      <feGaussianBlur in="SourceAlpha" stdDeviation="3" />
      <feOffset dx="2" dy="4" result="offsetblur" />
      <feComponentTransfer>
        <feFuncA type="linear" slope="0.3" />
      </feComponentTransfer>
      <feMerge>
        <feMergeNode />
        <feMergeNode in="SourceGraphic" />
      </feMerge>
    </filter>
  </defs>

  <!-- Background layers -->
  <rect width="800" height="200" fill="url(#skyGradient)" />
  <rect y="200" width="800" height="250" fill="url(#groundGradient)" />

  <!-- Mountains in background -->
  <path d="M0,200 L100,120 L200,180 L300,100 L400,160 L500,90 L600,150 L700,80 L800,120 L800,200 Z" fill="url(#mountainGradient)" filter="url(#shadow)" />
  
  <!-- Mine entrance -->
  <rect x="250" y="220" width="100" height="80" rx="10" ry="10" fill="url(#mineShaftGradient)" filter="url(#shadow)" />
  <rect x="270" y="240" width="60" height="60" rx="5" ry="5" fill="#212121" />
  
  <!-- Support beams for mine entrance -->
  <rect x="250" y="220" width="10" height="80" fill="#5d4037" />
  <rect x="340" y="220" width="10" height="80" fill="#5d4037" />
  <rect x="250" y="220" width="100" height="10" fill="#5d4037" />
  <rect x="270" y="240" width="60" height="5" fill="#5d4037" />
  
  <!-- Mining facility buildings -->
  <rect x="400" y="180" width="150" height="100" fill="url(#buildingGradient)" filter="url(#shadow)" />
  <path d="M400,180 L475,150 L550,180 Z" fill="url(#roofGradient)" filter="url(#shadow)" />
  
  <!-- Windows and door for facility -->
  <rect x="420" y="200" width="20" height="30" fill="#bbdefb" stroke="#90caf9" stroke-width="1" />
  <rect x="460" y="200" width="20" height="30" fill="#bbdefb" stroke="#90caf9" stroke-width="1" />
  <rect x="500" y="200" width="20" height="30" fill="#bbdefb" stroke="#90caf9" stroke-width="1" />
  <rect x="465" y="250" width="25" height="30" fill="#5d4037" stroke="#4e342e" stroke-width="1" />
  <circle cx="485" cy="265" r="2" fill="#ffc107" />
  
  <!-- Secondary processing building -->
  <rect x="150" y="200" width="80" height="60" fill="url(#buildingGradient)" filter="url(#shadow)" />
  <path d="M150,200 L190,180 L230,200 Z" fill="url(#roofGradient)" filter="url(#shadow)" />
  <rect x="165" y="215" width="15" height="20" fill="#bbdefb" stroke="#90caf9" stroke-width="1" />
  <rect x="195" y="215" width="15" height="20" fill="#bbdefb" stroke="#90caf9" stroke-width="1" />
  <rect x="180" y="240" width="20" height="20" fill="#5d4037" stroke="#4e342e" stroke-width="1" />
  
  <!-- Storage area -->
  <rect x="580" y="200" width="100" height="80" fill="url(#buildingGradient)" filter="url(#shadow)" />
  <rect x="580" y="200" width="100" height="10" fill="#9e9e9e" />
  <rect x="600" y="220" width="20" height="30" fill="#bbdefb" stroke="#90caf9" stroke-width="1" />
  <rect x="640" y="220" width="20" height="30" fill="#bbdefb" stroke="#90caf9" stroke-width="1" />
  <rect x="620" y="260" width="20" height="20" fill="#5d4037" stroke="#4e342e" stroke-width="1" />
  <circle cx="630" cy="270" r="2" fill="#ffc107" />
  
  <!-- Mining Cart tracks -->
  <rect x="300" y="300" width="150" height="5" fill="#616161" />
  <rect x="300" y="310" width="150" height="5" fill="#616161" />
  <rect x="300" y="300" width="5" height="15" fill="#424242" />
  <rect x="320" y="300" width="5" height="15" fill="#424242" />
  <rect x="340" y="300" width="5" height="15" fill="#424242" />
  <rect x="360" y="300" width="5" height="15" fill="#424242" />
  <rect x="380" y="300" width="5" height="15" fill="#424242" />
  <rect x="400" y="300" width="5" height="15" fill="#424242" />
  <rect x="420" y="300" width="5" height="15" fill="#424242" />
  <rect x="440" y="300" width="5" height="15" fill="#424242" />
  
  <!-- Mining carts -->
  <rect x="320" y="290" width="40" height="20" rx="5" ry="5" fill="#455a64" filter="url(#shadow)" />
  <rect x="320" y="290" width="40" height="5" fill="#607d8b" />
  <circle cx="330" cy="310" r="5" fill="#212121" />
  <circle cx="350" cy="310" r="5" fill="#212121" />
  <rect x="327" y="285" width="25" height="15" fill="#607d8b" />
  
  <rect x="380" y="290" width="40" height="20" rx="5" ry="5" fill="#455a64" filter="url(#shadow)" />
  <rect x="380" y="290" width="40" height="5" fill="#607d8b" />
  <circle cx="390" cy="310" r="5" fill="#212121" />
  <circle cx="410" cy="310" r="5" fill="#212121" />
  <rect x="387" y="285" width="25" height="15" fill="#607d8b" />
  
  <!-- Modern mining equipment -->
  <rect x="500" y="330" width="100" height="50" rx="5" ry="5" fill="#455a64" filter="url(#shadow)" />
  <rect x="510" y="340" width="80" height="30" rx="3" ry="3" fill="#607d8b" />
  <circle cx="550" cy="380" r="10" fill="#212121" />
  <circle cx="550" cy="380" r="5" fill="#424242" />
  <rect x="520" y="320" width="10" height="30" fill="#455a64" />
  <rect x="570" y="320" width="10" height="30" fill="#455a64" />
  <rect x="520" y="310" width="60" height="10" rx="5" ry="5" fill="#607d8b" />
  
  <!-- Conveyor belt -->
  <rect x="600" y="320" width="120" height="10" fill="#424242" filter="url(#shadow)" />
  <rect x="600" y="330" width="120" height="20" fill="#616161" />
  <rect x="600" y="350" width="120" height="10" fill="#424242" />
  <rect x="600" y="330" width="10" height="20" fill="#757575" />
  <rect x="630" y="330" width="10" height="20" fill="#757575" />
  <rect x="660" y="330" width="10" height="20" fill="#757575" />
  <rect x="690" y="330" width="10" height="20" fill="#757575" />
  <rect x="720" y="330" width="10" height="20" fill="#757575" />
  
  <!-- Workers -->
  <g transform="translate(290, 270)">
    <circle cx="0" cy="0" r="6" fill="#795548" />
    <rect x="-3" y="6" width="6" height="10" fill="#ff9800" />
    <line x1="-3" y1="11" x2="-8" y2="18" stroke="#ff9800" stroke-width="2" />
    <line x1="3" y1="11" x2="8" y2="18" stroke="#ff9800" stroke-width="2" />
    <line x1="0" y1="16" x2="0" y2="23" stroke="#795548" stroke-width="2" />
    <line x1="0" y1="23" x2="-5" y2="30" stroke="#795548" stroke-width="2" />
    <line x1="0" y1="23" x2="5" y2="30" stroke="#795548" stroke-width="2" />
    <circle cx="0" cy="-5" r="3" fill="#f57c00" />
  </g>
  
  <g transform="translate(450, 280)">
    <circle cx="0" cy="0" r="6" fill="#795548" />
    <rect x="-3" y="6" width="6" height="10" fill="#2196f3" />
    <line x1="-3" y1="11" x2="-8" y2="18" stroke="#2196f3" stroke-width="2" />
    <line x1="3" y1="11" x2="8" y2="18" stroke="#2196f3" stroke-width="2" />
    <line x1="0" y1="16" x2="0" y2="23" stroke="#795548" stroke-width="2" />
    <line x1="0" y1="23" x2="-5" y2="30" stroke="#795548" stroke-width="2" />
    <line x1="0" y1="23" x2="5" y2="30" stroke="#795548" stroke-width="2" />
    <circle cx="0" cy="-5" r="3" fill="#f57c00" />
  </g>
  
  <g transform="translate(550, 300)">
    <circle cx="0" cy="0" r="6" fill="#795548" />
    <rect x="-3" y="6" width="6" height="10" fill="#4caf50" />
    <line x1="-3" y1="11" x2="-8" y2="18" stroke="#4caf50" stroke-width="2" />
    <line x1="3" y1="11" x2="8" y2="18" stroke="#4caf50" stroke-width="2" />
    <line x1="0" y1="16" x2="0" y2="23" stroke="#795548" stroke-width="2" />
    <line x1="0" y1="23" x2="-5" y2="30" stroke="#795548" stroke-width="2" />
    <line x1="0" y1="23" x2="5" y2="30" stroke="#795548" stroke-width="2" />
    <circle cx="0" cy="-5" r="3" fill="#f57c00" />
  </g>
  
  <!-- Trees -->
  <g transform="translate(100, 250)">
    <rect x="0" y="0" width="6" height="20" fill="#5d4037" />
    <circle cx="3" cy="-10" r="15" fill="#388e3c" />
  </g>
  
  <g transform="translate(720, 250)">
    <rect x="0" y="0" width="6" height="20" fill="#5d4037" />
    <circle cx="3" cy="-10" r="15" fill="#388e3c" />
  </g>
  
  <g transform="translate(750, 270)">
    <rect x="0" y="0" width="6" height="15" fill="#5d4037" />
    <circle cx="3" cy="-8" r="12" fill="#388e3c" />
  </g>
  
  <!-- Ore piles -->
  <ellipse cx="170" cy="280" rx="20" ry="10" fill="#8d6e63" filter="url(#shadow)" />
  <ellipse cx="165" cy="275" rx="15" ry="7" fill="#795548" />
  <ellipse cx="160" cy="270" rx="10" ry="5" fill="#6d4c41" />
  
  <ellipse cx="650" cy="380" rx="30" ry="15" fill="#8d6e63" filter="url(#shadow)" />
  <ellipse cx="645" cy="375" rx="25" ry="10" fill="#795548" />
  <ellipse cx="640" cy="370" rx="15" ry="7" fill="#6d4c41" />
</svg>